<?xml version="1.0" encoding="UTF-8"?>
<svg id="Layer_1" data-name="Layer 1" xmlns="http://www.w3.org/2000/svg" width="422.434" height="106.196" xmlns:xlink="http://www.w3.org/1999/xlink" version="1.1" viewBox="0 0 422.434 106.196">
  <defs>
    <clipPath id="clippath">
      <rect width="347.087" height="106.196" fill="none" stroke-width="0"/>
    </clipPath>
    <clipPath id="clippath-1">
      <rect x="39.313" y="15.596" width="51.018" height="24.392" fill="none" stroke-width="0"/>
    </clipPath>
    <linearGradient id="linear-gradient" x1="-92.133" y1="434.797" x2="-91.177" y2="435.693" gradientTransform="translate(4741.191 10649.545) scale(51.02 -24.391)" gradientUnits="userSpaceOnUse">
      <stop offset="0" stop-color="#8e6c48"/>
      <stop offset=".409" stop-color="#dfb77b"/>
      <stop offset="1" stop-color="#ecc383"/>
    </linearGradient>
    <clipPath id="clippath-2">
      <rect x="34.577" y="2.603" width="44.686" height="37.384" fill="none" stroke-width="0"/>
    </clipPath>
    <linearGradient id="linear-gradient-2" x1="-91.965" y1="439.843" x2="-90.934" y2="441.039" gradientTransform="translate(4141.061 16475.769) scale(44.686 -37.367)" gradientUnits="userSpaceOnUse">
      <stop offset="0" stop-color="#8e6c48"/>
      <stop offset=".409" stop-color="#dfb77b"/>
      <stop offset="1" stop-color="#ecc383"/>
    </linearGradient>
    <clipPath id="clippath-3">
      <rect x="32.473" y="2.583" width="14.547" height="33.835" fill="none" stroke-width="0"/>
    </clipPath>
    <linearGradient id="linear-gradient-3" x1="-87.498" y1="438.795" x2="-86.811" y2="440.037" gradientTransform="translate(1305.515 14882.295) scale(14.543 -33.826)" gradientUnits="userSpaceOnUse">
      <stop offset="0" stop-color="#8e6c48"/>
      <stop offset=".409" stop-color="#dfb77b"/>
      <stop offset="1" stop-color="#ecc383"/>
    </linearGradient>
    <clipPath id="clippath-4">
      <rect x="5.284" y="32.062" width="16.143" height="7.926" fill="none" stroke-width="0"/>
    </clipPath>
    <linearGradient id="linear-gradient-4" x1="-86.947" y1="405.739" x2="-89.085" y2="406.965" gradientTransform="translate(1428.24 3257.214) scale(16.138 -7.927)" gradientUnits="userSpaceOnUse">
      <stop offset="0" stop-color="#8e6c48"/>
      <stop offset=".409" stop-color="#dfb77b"/>
      <stop offset="1" stop-color="#ecc383"/>
    </linearGradient>
    <clipPath id="clippath-5">
      <rect x="4.035" y="18.513" width="22.128" height="21.474" fill="none" stroke-width="0"/>
    </clipPath>
    <linearGradient id="linear-gradient-5" x1="-88.776" y1="433.057" x2="-90.219" y2="434.713" gradientTransform="translate(1990.068 9342.014) scale(22.128 -21.479)" gradientUnits="userSpaceOnUse">
      <stop offset="0" stop-color="#8e6c48"/>
      <stop offset=".409" stop-color="#dfb77b"/>
      <stop offset="1" stop-color="#ecc383"/>
    </linearGradient>
    <clipPath id="clippath-6">
      <rect x="14.3" y="2.565" width="13.953" height="33.844" fill="none" stroke-width="0"/>
    </clipPath>
    <linearGradient id="linear-gradient-6" x1="-86.126" y1="439.017" x2="-87.126" y2="440.104" gradientTransform="translate(1231.51 14887.667) scale(13.949 -33.838)" gradientUnits="userSpaceOnUse">
      <stop offset="0" stop-color="#8e6c48"/>
      <stop offset=".409" stop-color="#dfb77b"/>
      <stop offset="1" stop-color="#ecc383"/>
    </linearGradient>
  </defs>
  <g id="Group_596" data-name="Group 596">
    <path id="Path_923" data-name="Path 923" d="M187.326,84.57h-1v-37.97h1v37.97Z" fill="#99abc4" stroke-width="0"/>
    <g id="Group_591" data-name="Group 591">
      <g id="Group_592" data-name="Group 592">
        <g id="Group_584" data-name="Group 584">
          <g clip-path="url(#clippath)">
            <g id="Group_583" data-name="Group 583">
              <g id="Group_567" data-name="Group 567">
                <g id="Group_566" data-name="Group 566">
                  <g clip-path="url(#clippath-1)">
                    <g id="Group_565" data-name="Group 565">
                      <path id="Path_878" data-name="Path 878" d="M88.119,30.782c.343-1.055,1.163-1.886,2.213-2.243v-2.968h-1.542l-1-9.975-38.512,19.377-9.966,5.014h10.567M66.628,31.673h0" fill="url(#linear-gradient)" stroke-width="0"/>
                    </g>
                  </g>
                </g>
              </g>
              <g id="Group_570" data-name="Group 570">
                <g id="Group_569" data-name="Group 569">
                  <g clip-path="url(#clippath-2)">
                    <g id="Group_568" data-name="Group 568">
                      <path id="Path_879" data-name="Path 879" d="M34.577,38.951l.34,1.036h.8l5.835-5.007L79.263,2.62h-18.128l-21.944,30.017-4.614,6.314Z" fill="url(#linear-gradient-2)" stroke-width="0"/>
                    </g>
                  </g>
                </g>
              </g>
              <g id="Group_573" data-name="Group 573">
                <g id="Group_572" data-name="Group 572">
                  <g clip-path="url(#clippath-3)">
                    <g id="Group_571" data-name="Group 571">
                      <path id="Path_880" data-name="Path 880" d="M32.473,32.537l1.262,3.846.012.036,3.669-9.351L47.016,2.593h-10.349l-2.121,15.116-2.073,14.828Z" fill="url(#linear-gradient-3)" stroke-width="0"/>
                    </g>
                  </g>
                </g>
              </g>
              <g id="Group_576" data-name="Group 576">
                <g id="Group_575" data-name="Group 575">
                  <g clip-path="url(#clippath-4)">
                    <g id="Group_574" data-name="Group 574">
                      <path id="Path_881" data-name="Path 881" d="M10.86,39.988h10.567l-9.877-4.97-5.873-2.955.229,1.6c.258,1.044.126,2.146-.371,3.1-.077.152-.144.309-.2.47-.008.027-.012.054-.017.08-.061.482-.025.972.107,1.44l5.431,1.237.004-.002Z" fill="url(#linear-gradient-4)" stroke-width="0"/>
                    </g>
                  </g>
                </g>
              </g>
              <g id="Group_579" data-name="Group 579">
                <g id="Group_578" data-name="Group 578">
                  <g clip-path="url(#clippath-5)">
                    <g id="Group_577" data-name="Group 577">
                      <path id="Path_882" data-name="Path 882" d="M25.027,39.987h.8l.34-1.037-4.9-6.709-8.881-12.145c-.544.563-1.285.894-2.067.924-.396-.002-.785-.105-1.129-.3-.588-.373-1.041-.924-1.292-1.573-.039-.082-.128-.268-.194-.378-.063,0-.135.01-.191.014-.106.01-.216.017-.322.022h-.184c-.458-.011-.914-.067-1.362-.167l-.145-.029c-.234-.056-.472-.089-.712-.1-.02-.001-.041-.001-.061,0-.312,0-.38.084-.414.126-.184.295-.278.637-.271.984-.018.847.047,1.694.193,2.528l15.018,12.886,5.774,4.954Z" fill="url(#linear-gradient-5)" stroke-width="0"/>
                    </g>
                  </g>
                </g>
              </g>
              <g id="Group_582" data-name="Group 582">
                <g id="Group_581" data-name="Group 581">
                  <g clip-path="url(#clippath-6)">
                    <g id="Group_580" data-name="Group 580">
                      <path id="Path_883" data-name="Path 883" d="M26.997,36.404l.009-.026.085-.258,1.163-3.547-2.234-15.9.016-.049-1.974-14.05h-2.5c-1.96-.005-3.919-.007-5.877-.008h-1.38c0,.496,0,.992,0,1.488l8.76,22.323,3.932,10.027Z" fill="url(#linear-gradient-6)" stroke-width="0"/>
                    </g>
                  </g>
                </g>
              </g>
            </g>
          </g>
        </g>
        <path id="Path_884" data-name="Path 884" d="M49.88,39.983h-14.963l-.34-1.036-.007-.021v-.013l-.814-2.482-.005-.017-.012-.036-1.262-3.846-.1-.31-.03-.067-.014-.043-1.964-5.988-1.844,5.623-.007.022-.121.369-.144.44-1.163,3.547-.085.258-.009.026-.758,2.31-.065.2-.011.032-.34,1.037h-14.962l5.835,4.135.077.055.078.056,6.15,4.358-4.539,13.837,11.909-8.415,11.909,8.416-4.539-13.837,6.15-4.358.079-.056.077-.055,5.834-4.141Z" fill="#002f6c" stroke-width="0"/>
        <g id="Group_589" data-name="Group 589">
          <g id="Group_593" data-name="Group 593">
            <path id="Path_885" data-name="Path 885" d="M67.068,36.072c-.021-.168-.072-.331-.151-.481" fill="#002f6c" stroke-width="0"/>
            <path id="Path_886" data-name="Path 886" d="M88.088,103.629h-28.984l-.693-.085c-.775-.288-1.551-.581-2.323-.874-1.555-.587-3.159-1.195-4.784-1.781l-25.338-9.167-.865-.316c-2.095-.761-4.191-1.521-6.287-2.282l-8.856-3.224c-2.214-.887-4.469-1.672-6.649-2.43l-.609-.208c.095-.825.383-1.615.84-2.308.054.017.117.039.156.053.327.13.675.203,1.027.213.18,0,.359-.024.533-.07.673-.222,1.225-.71,1.529-1.35.585-.887.966-1.893,1.115-2.945.238-1.444-.657-2.834-2.07-3.215-.278-.101-.541-.237-.783-.406-.828-.654-.879-2.924-.911-4.283,0,0-.007-.3-.01-.414,1.473-1.036,2.495-2.596,2.856-4.361.18-1.046.209-2.113.085-3.167-.144-.916-.098-1.851.133-2.749,1.004-1.792,2.45-3.296,4.2-4.37.761-.368,1.334-1.037,1.579-1.846.407-1.824-1.245-2.7-2.134-3.166-.218-.106-.428-.229-.628-.366-1.227-1.267-2.23-2.732-2.967-4.335-.156-.326-.3-.652-.437-.975-.593-1.434-1.057-2.918-1.386-4.434v-.019c-.132-.468-.168-.958-.107-1.44,0-.027.01-.054.017-.08.056-.161.123-.318.2-.47.149-.301.27-.616.361-.94.149-.713.152-1.449.01-2.164l-.229-1.6-.279-1.944-.972-6.8c-.027-.186-.063-.4-.1-.651-.023-.139-.052-.313-.082-.51-.147-.834-.211-1.68-.193-2.527-.007-.347.087-.689.271-.984.034-.041.1-.123.415-.126.02-.001.041-.001.061,0,.24.011.478.044.712.1l.145.029c.447.1.903.156,1.361.167h.184c.106,0,.216-.012.322-.022.056,0,.129-.012.191-.015.066.109.155.3.194.378.249.647.698,1.198,1.281,1.572.344.195.733.298,1.129.3.782-.03,1.523-.361,2.067-.924.216-.209.408-.442.572-.694.207-.32.391-.654.552-1,1.179-2.553,1.019-5.6.874-8.324-.046-.859-.09-1.671-.088-2.422v-2.33c0-.423,0-.846,0-1.269,0-.496,0-.992,0-1.488h1.379c1.957,0,3.916.002,5.877.007h59.169c2.251.005,4.502.007,6.755.007h.311v13.015l.345,21.979h2.2V.057h-.325v.006h-9.279c-1.819-.009-3.64-.013-5.465-.013l-6.063-.002c-1.743,0-3.487-.002-5.232-.007h-17.338c-1.063-.005-2.127-.005-3.19,0h-10.113l-7.649-.031h-4.114c-2.299-.007-4.598-.01-6.897-.01h-2.916l-.007,1.277c-.007,1.347-.007,2.7-.007,4.043v2.328c0,.826.044,1.669.092,2.563.183,1.885.125,3.786-.173,5.656-.146.743-.424,1.455-.821,2.1l-.026.033c-.105.159-.241.295-.4.4-.063-.109-.143-.268-.191-.373-.273-.75-.839-1.358-1.568-1.684-.279-.102-.575-.152-.872-.148-.177,0-.339.015-.482.027-.068.007-.139.014-.208.017h-.078c-.29-.012-.579-.052-.862-.119h-.029c-.463-.102-.934-.159-1.408-.17h-.022c-.897-.026-1.757.358-2.337,1.042-.195.236-.355.498-.475.78-.26.637-.395,1.318-.4,2.006,0,1.111.106,2.219.319,3.309l.007.046c.033.2.065.385.087.543l.722,5.037.278,1.944.481,3.363c.083.382.098.776.046,1.163-.055.174-.125.344-.208.507-.126.261-.234.53-.322.806-.024.083-.041.165-.061.248-.098.458-.125.928-.08,1.394.037.396.099.788.187,1.176.287,1.32.666,2.619,1.134,3.886.119.32.247.646.384.975.91,2.287,2.256,4.375,3.962,6.149.37.335.788.612,1.24.822.232.117.459.245.678.385-.07.045-.162.106-.283.179-2.119,1.303-3.87,3.124-5.087,5.293-.534,1.324-.69,2.77-.451,4.177.095.798.088,1.604-.022,2.4-.225,1.18-.908,2.223-1.9,2.9-.359.191-.653.483-.845.841-.149.316-.213.666-.186,1.015.01.211.014.438.019.678.046,2.039.111,4.835,1.887,6.235.422.314.886.567,1.379.751.18.062.352.145.512.248.023.125.023.253,0,.378-.129.678-.397,1.322-.787,1.892-.012.022-.024.041-.034.06-.332-.133-.684-.206-1.041-.216h-.169c-2.333.177-2.958,3.437-3.259,5l-.017.077c-.095.418-.036.856.165,1.234.226.372.582.647,1,.77l1.274.446c2.156.751,4.387,1.525,6.567,2.4l8.893,3.237,6.727,2.442,25.758,9.332c1.635.591,3.289,1.216,4.748,1.769l.118.046c.787.295,1.573.593,2.357.886l.038.015,1.2.172h31.741v-13.079l-2.546.035v10.485Z" fill="#002f6c" stroke-width="0"/>
            <g id="Group_595" data-name="Group 595">
              <path id="Path_887" data-name="Path 887" d="M56.979,63.304c.01.045-.019.09-.064.1-.012.003-.024.003-.036,0h-6.079c-.045.01-.09-.019-.1-.064-.003-.012-.003-.024,0-.036v-.287c0-.063.052-.095.155-.095,1.042-.014,1.945-.727,2.2-1.738l4.858-14.061c.008-.018.013-.039.012-.059l-.131-.393c0-.04.016-.06.047-.06h2.389c.021.01.043.018.065.024.032.012.057.039.066.072l5.036,14.132c.1.19.189.385.268.584.063.165.141.325.232.476.22.349.551.614.941.75.308.167.65.261,1,.274.064,0,.1.035.1.107v.274c.01.045-.019.09-.064.1-.012.003-.024.003-.036,0h-7.287c-.046.007-.089-.024-.096-.07-.002-.01-.001-.02,0-.03v-.287c0-.063.147-.103.44-.119.293-.016.535-.032.726-.047,1.103-.119,1.655-.492,1.655-1.119-.001-.056-.009-.113-.024-.167l-1.8-5.072c-.008-.016-.024-.052-.048-.107-.053-.233-.261-.399-.5-.4h-4.227c-.249.007-.469.161-.56.393-.015.032-.027.066-.036.1l-1.786,5.227v.107c.011.227.13.436.321.56.57.399,1.258.597,1.953.56h.31c.045-.009.09.02.099.065.002.01.002.02,0,.03v.276ZM60.503,54.66c.143,0,.214-.06.214-.179-.002-.074-.018-.146-.047-.214l-1.774-4.882c-.079-.214-.139-.321-.178-.322-.039,0-.103.11-.191.333l-1.667,4.87c-.032.081-.049.168-.048.255,0,.093.059.137.178.137l3.513.002Z" fill="#002f6c" stroke-width="0"/>
              <path id="Path_888" data-name="Path 888" d="M68.612,63.399c-.067,0-.1-.079-.1-.238v-.143c-.01-.045.019-.09.064-.1.012-.003.024-.003.036,0,.076-.003.151-.011.226-.024l.321-.047c.111-.016.215-.033.31-.053l.2-.042c.707-.065,1.24-.671,1.214-1.381v-12.569c.044-.605-.28-1.178-.822-1.452-.322-.174-.682-.264-1.048-.262h-.452c-.045.01-.09-.019-.1-.064-.003-.012-.003-.024,0-.036v-.286c0-.063.048-.095.143-.095l6.536-.179h1.2c1.325.061,2.581.605,3.53,1.531.933.888,1.45,2.128,1.423,3.416.039,1.28-.605,2.484-1.691,3.162-.36.236-.738.443-1.131.619l3.608,5.893c.575.987,1.463,1.754,2.524,2.179.079.014.136.085.131.166,0,.2-.131.3-.393.3-1.668.056-3.258-.703-4.262-2.036-.231-.301-.461-.639-.691-1.012l-3.084-4.834-2.834-.131h-.08c-.119,0-.179.056-.178.167v5.489c-.028.364.107.722.369.976.375.263.817.415,1.274.441.159.024.353.058.584.1.155.035.312.057.47.066.083,0,.125.032.125.1v.286c.01.045-.019.09-.064.1-.012.003-.024.003-.036,0l-7.322-.007ZM74.172,47.059c-.1,0-.2.008-.3.011s-.244.009-.411.013-.25.069-.25.2v7.215l.024.357c.024.167.099.254.226.262l1.214.072c2.231,0,3.576-.794,4.036-2.381.158-.557.235-1.135.226-1.714.057-1.112-.371-2.194-1.173-2.965-.82-.736-1.894-1.125-2.995-1.083-.111,0-.214,0-.31.005l-.286.013" fill="#002f6c" stroke-width="0"/>
              <path id="Path_889" data-name="Path 889" d="M87.888,48.517c0-.953-.548-1.429-1.643-1.429-.175,0-.262-.032-.262-.1v-.286c-.01-.045.019-.09.064-.1.012-.003.024-.003.036,0h5.965c.045-.01.09.019.1.064.003.012.003.024,0,.036v.286c0,.063-.175.097-.524.1-.35,0-.689.117-.964.333-.348.365-.51.869-.441,1.369v12.7c0,.953.552,1.429,1.655,1.429.167,0,.25.032.25.1v.286c.01.045-.019.09-.064.1-.012.003-.024.003-.036,0h-5.965c-.045.01-.09-.019-.1-.064-.003-.012-.003-.024,0-.036v-.288c0-.067.175-.1.524-.1.35,0,.689-.117.964-.333.347-.366.51-.869.441-1.369v-12.698Z" fill="#002f6c" stroke-width="0"/>
              <path id="Path_890" data-name="Path 890" d="M94.341,63.4c-.143,0-.214-.133-.214-.4-.015-.223.053-.444.191-.619l11.132-14.394c.033-.042.05-.095.048-.149,0-.058-.079-.089-.238-.089h-7.227c-.61-.021-1.198.227-1.608.679-.141.148-.248.325-.315.519-.1.326-.179.657-.238.993-.035.257-.097.511-.185.755-.032.037-.105.054-.22.054s-.188-.024-.22-.072l.179-3.655c0-.267.091-.4.274-.4h12.93c.127,0,.19.127.191.381.011.213-.043.425-.155.607l-10.7,13.847c-.024.039-.07.106-.137.2-.056.068-.091.151-.1.238,0,.215.182.322.547.322h8.394c.43-.02.839-.191,1.155-.482.4-.339.692-.789.839-1.292.188-.636.306-1.291.351-1.953.018-.114.123-.194.238-.179.133,0,.2.048.2.143v.56l-.25,3.691c-.008.087-.012.171-.012.25,0,.301-.111.452-.334.453l-14.516-.008Z" fill="#002f6c" stroke-width="0"/>
              <path id="Path_891" data-name="Path 891" d="M123.595,63.364c-.706.22-1.44.34-2.179.357-1.269.006-2.53-.208-3.727-.631-1.508-.512-2.854-1.412-3.905-2.608-2.255-2.895-2.506-6.877-.631-10.032.847-1.349,2.042-2.445,3.459-3.172,1.463-.776,3.095-1.177,4.751-1.167,1.591-.026,3.16.364,4.554,1.131,1.326.739,2.438,1.81,3.227,3.107.8,1.284,1.221,2.768,1.214,4.281,0,1.542-.415,3.055-1.2,4.382-.799,1.382-1.934,2.538-3.3,3.363-.707.428-1.468.76-2.262.988M114.404,54.517c.008,1.355.307,2.693.875,3.924.55,1.254,1.413,2.347,2.506,3.172,1.087.817,2.415,1.249,3.774,1.226,1.876.076,3.664-.802,4.75-2.334,1.078-1.582,1.617-3.469,1.538-5.381.047-2.043-.618-4.038-1.881-5.644-.609-.769-1.374-1.399-2.244-1.851-.822-.45-1.742-.69-2.679-.7-.75-.021-1.498.08-2.215.3-.56.191-1.088.466-1.566.815-.471.349-.888.764-1.238,1.233-.358.478-.658.998-.893,1.548-.489,1.169-.736,2.424-.726,3.691" fill="#002f6c" stroke-width="0"/>
              <path id="Path_892" data-name="Path 892" d="M132.478,63.4c-.045.01-.09-.019-.1-.064-.003-.012-.003-.024,0-.036v-.282c0-.063.04-.1.119-.1h.274c.303.021.606-.02.893-.119.587-.286.881-1.072.881-2.357v-12.366c0-.533-.516-.851-1.548-.952-.23-.024-.391-.036-.482-.036s-.137-.033-.137-.1v-.286c-.01-.045.019-.09.064-.1.012-.003.024-.003.036,0h4.357l11.3,12.49c.04.04.067.07.083.089.019.022.048.033.077.03.036,0,.054-.036.054-.107v-8.2c.082-1.049-.052-2.104-.393-3.1-.344-.527-.96-.809-1.584-.726h-.61c-.045.01-.09-.019-.1-.064-.003-.012-.003-.024,0-.036v-.286c-.01-.045.019-.09.064-.1.012-.003.024-.003.036,0h6.191c.045-.01.09.019.1.064.003.012.003.024,0,.036v.286c0,.067-.117.1-.351.1-.408.055-.801.191-1.155.4-.533.267-.8.6-.8,1v14.561c.01.129-.015.258-.071.374-.048.075-.161.113-.339.114-.142.011-.283-.027-.4-.107-.111-.095-.215-.199-.31-.31l-12.279-13.592c-.053-.066-.13-.108-.214-.119-.04,0-.059.04-.059.119v11.882c0,.722.571,1.198,1.714,1.429.238.055.481.089.726.1.167,0,.25.033.25.1v.286c.01.045-.019.09-.064.1-.012.003-.024.003-.036,0l-6.187-.015Z" fill="#002f6c" stroke-width="0"/>
              <path id="Path_893" data-name="Path 893" d="M158.8,63.304c.01.045-.019.09-.064.1-.012.003-.024.003-.036,0h-6.084c-.045.01-.09-.019-.1-.064-.003-.012-.003-.024,0-.036v-.287c0-.063.052-.095.155-.095,1.043-.014,1.945-.727,2.2-1.738l4.858-14.061c.008-.019.013-.039.012-.059l-.131-.393c0-.04.016-.06.048-.06h2.381c.021.01.043.018.065.024.032.012.057.039.066.072l5.036,14.132c.1.19.189.385.268.584.063.165.141.325.232.476.22.349.551.614.941.75.308.167.65.261,1,.274.064,0,.1.035.1.107v.274c.01.045-.019.09-.064.1-.012.003-.024.003-.036,0h-7.286c-.045.01-.09-.019-.1-.064-.003-.012-.003-.024,0-.036v-.287c0-.063.147-.103.44-.119s.535-.032.726-.047c1.103-.119,1.655-.492,1.655-1.119-.001-.056-.009-.113-.024-.167l-1.8-5.072c-.008-.016-.024-.052-.048-.107-.053-.233-.261-.399-.5-.4h-4.227c-.248.007-.468.162-.559.393-.015.032-.027.066-.036.1l-1.786,5.227v.107c.011.227.13.436.321.56.57.399,1.258.597,1.953.56h.31c.045-.009.09.02.099.065.002.01.002.02,0,.03l.014.276ZM162.324,54.66c.143,0,.214-.06.214-.179-.002-.074-.018-.146-.047-.214l-1.774-4.882c-.079-.214-.139-.321-.179-.322s-.103.11-.19.333l-1.67,4.872c-.032.081-.049.168-.048.255,0,.093.06.137.178.137h3.516Z" fill="#002f6c" stroke-width="0"/>
              <path id="Path_894" data-name="Path 894" d="M50.774,84.53c-.033.005-.064-.018-.069-.052,0-.006,0-.012,0-.017v-.207c-.005-.033.018-.064.052-.069.006,0,.012,0,.017,0h.207c.451.011.896-.096,1.293-.31.158-.096.287-.235.37-.4.099-.187.15-.396.147-.607v-9.121c0-.355-.23-.628-.689-.818-.324-.139-.673-.209-1.026-.207h-.19c-.033.005-.064-.018-.069-.052,0-.006,0-.012,0-.017v-.207c-.005-.033.018-.064.052-.069.006,0,.012,0,.017,0h5.835c.033-.005.064.018.069.052,0,.006,0,.012,0,.017v.207c.005.033-.018.064-.052.069-.006,0-.012,0-.017,0h-.371c-.534-.009-1.065.076-1.569.251-.116.031-.211.116-.254.228-.046.178-.066.362-.057.546v9.56c.016.108.072.206.155.276.082.082.194.128.31.129h3.4c.613-.056,1.168-.387,1.508-.9.132-.161.3-.375.491-.642.108-.161.229-.313.362-.453.184-.138.276-.134.276.009,0,.035-.01.069-.026.1l-1.3,2.552c-.052.103-.112.155-.181.155l-8.691-.003Z" fill="#002f6c" stroke-width="0"/>
              <path id="Path_895" data-name="Path 895" d="M66.332,84.462c.005.033-.018.064-.052.069-.006,0-.012,0-.017,0h-4.4c-.033.005-.064-.018-.069-.052,0-.006,0-.012,0-.017v-.207c0-.046.037-.069.112-.069.755-.009,1.41-.526,1.594-1.259l3.517-10.181c.006-.013.009-.027.009-.042l-.095-.284c0-.029.011-.044.034-.044h1.724c.015.007.031.013.047.017.024.008.042.028.048.052l3.646,10.231c.072.138.136.279.194.423.046.12.102.235.168.345.159.253.399.444.681.542.223.122.47.19.724.2.046,0,.069.027.069.077v.2c.005.033-.018.064-.052.069-.006,0-.012,0-.017,0h-5.275c-.033.005-.064-.018-.069-.052,0-.006,0-.012,0-.017v-.207c0-.046.106-.074.319-.086s.388-.022.526-.034c.8-.086,1.2-.356,1.2-.81-.001-.041-.007-.081-.017-.12l-1.3-3.672c-.006-.012-.017-.037-.035-.077-.037-.171-.187-.293-.362-.294h-3.06c-.18.005-.34.117-.405.285-.011.022-.019.045-.026.069l-1.293,3.783v.078c.009.163.096.312.233.4.413.29.911.432,1.414.406h.224c.033-.005.064.018.069.052,0,.006,0,.012,0,.017l-.008.209ZM68.883,78.204c.1,0,.155-.044.155-.129-.001-.054-.013-.107-.034-.157l-1.284-3.533c-.058-.157-.1-.233-.129-.233s-.075.081-.138.241l-1.207,3.525c-.024.059-.036.122-.035.186,0,.067.043.1.129.1h2.543Z" fill="#002f6c" stroke-width="0"/>
              <path id="Path_896" data-name="Path 896" d="M78.739,72.722c-.689,0-1.034.264-1.034.793.002.106.021.21.056.31.038.109.071.224.1.345l3.3,7.947c.024.054.079.088.138.086.065-.001.124-.037.155-.094l1.9-4.482-1.681-4.061c-.103-.259-.534-.506-1.293-.741-.141-.049-.287-.083-.436-.1-.066,0-.1-.023-.1-.069v-.207c-.005-.033.018-.064.052-.069.006,0,.012,0,.017,0h7.9c.033-.005.064.018.069.052,0,.006,0,.012,0,.017v.207c.005.033-.018.064-.052.069-.006,0-.012,0-.017,0h-.319c-.543-.005-1.038.313-1.258.81-.1.184-.2.4-.3.647l-1.121,2.628,2.207,5.309c.024.054.079.089.138.086.065-.001.124-.037.155-.094l3.646-8.577c.062-.136.096-.282.1-.431,0-.253-.33-.38-.991-.379h-.535c-.033.005-.064-.018-.069-.052,0-.006,0-.012,0-.017v-.207c-.005-.033.018-.064.052-.069.006,0,.012,0,.017,0h3.836c.033-.005.064.018.069.052,0,.006,0,.012,0,.017v.207c.005.033-.018.064-.052.069-.006,0-.012,0-.017,0h-.405c-.223-.013-.438.085-.573.263-.215.34-.398.699-.547,1.073l-4.431,10.4c-.036.105-.107.194-.2.254-.096.036-.198.053-.3.048h-.405c-.125.009-.24-.07-.276-.191l-2.327-5.636-2.353,5.525c-.036.105-.107.194-.2.254-.096.036-.198.053-.3.048h-.404c-.126.008-.24-.077-.267-.2l-4.568-11c-.092-.224-.376-.421-.853-.59-.284-.118-.58-.203-.883-.255-.113,0-.168-.023-.168-.069v-.207c-.005-.033.018-.064.052-.069.006,0,.012,0,.017,0h4.913c.033-.005.064.018.069.052,0,.006,0,.012,0,.017v.207c.005.033-.018.064-.052.069-.006,0-.012,0-.017,0l-.154.005ZM85.204,73.122c0-.241-.247-.375-.741-.4-.5.028-.787.203-.862.525-.052.187-.045.386.021.569.039.113.073.228.1.345l.543,1.32.836-1.957c.06-.127.094-.265.1-.406" fill="#002f6c" stroke-width="0"/>
              <path id="Path_897" data-name="Path 897" d="M114.109,79.187c.063,0,.095.045.095.134.007.075-.03.146-.095.184-.156.064-.316.118-.479.164-.157.043-.308.104-.452.18-.309.161-.495.489-.474.837v2.8c0,.126-.303.295-.909.508-.606.213-1.099.368-1.478.465-1.562.444-3.224.396-4.758-.138-1.551-.567-2.787-1.767-3.4-3.3-.324-.747-.494-1.552-.5-2.366-.014-.667.064-1.333.233-1.979.447-1.6,1.514-2.956,2.965-3.766.937-.562,2.008-.86,3.1-.862,1.18.018,2.348.24,3.452.655.123.05.25.091.379.121h.1l.345-.086h.216c.046-.007.089.024.096.07.002.01.001.02,0,.03v2.87c0,.109-.063.164-.19.164h-.035c-.109-.012-.183-.159-.224-.44l-.026-.13c-.394-1.666-1.93-2.806-3.638-2.7-1.385-.047-2.706.58-3.546,1.682-.889,1.141-1.357,2.554-1.323,4-.023,1.476.445,2.919,1.331,4.1.846,1.167,2.219,1.834,3.659,1.78.677.024,1.351-.102,1.974-.37.183-.084.342-.211.465-.37v-2.363c.037-.441-.132-.875-.457-1.176-.506-.302-1.095-.433-1.681-.375-.063,0-.095-.053-.095-.159,0-.106.032-.159.095-.159l5.256-.005Z" fill="#002f6c" stroke-width="0"/>
              <path id="Path_898" data-name="Path 898" d="M115.787,84.531c-.046,0-.069-.057-.069-.172v-.1c-.005-.033.018-.064.052-.069.006,0,.012,0,.017,0,.055-.002.11-.007.164-.017l.233-.034c.08-.012.155-.024.224-.039l.146-.031c.512-.047.898-.486.879-1v-9.1c.032-.439-.203-.853-.595-1.052-.233-.126-.494-.191-.759-.19h-.327c-.033.005-.064-.018-.069-.052,0-.006,0-.012,0-.017v-.207c0-.046.035-.069.1-.069l4.732-.129h.871c.959.043,1.868.437,2.555,1.107.676.643,1.05,1.54,1.03,2.473.029.927-.437,1.799-1.224,2.289-.261.171-.534.321-.819.448l2.612,4.267c.417.714,1.06,1.269,1.827,1.577.06.008.103.06.1.12,0,.143-.095.215-.284.215-1.207.041-2.359-.508-3.086-1.473-.167-.219-.333-.463-.5-.733l-2.232-3.5-2.051-.1h-.069c-.086,0-.129.04-.129.121v3.974c-.021.263.077.523.267.706.271.191.591.302.922.319.115.017.256.041.422.073.112.025.226.041.34.048.061,0,.091.023.091.069v.207c.005.033-.018.064-.052.069-.006,0-.012,0-.017,0l-5.302.002ZM119.812,72.701l-.22.008c-.078,0-.177.007-.3.009s-.181.05-.181.142v5.223l.017.259c.017.121.072.184.164.19l.879.052c1.615,0,2.589-.575,2.922-1.724.115-.403.17-.822.164-1.241.042-.805-.268-1.588-.849-2.147-.593-.533-1.371-.814-2.168-.784h-.224l-.207.009" fill="#002f6c" stroke-width="0"/>
              <path id="Path_899" data-name="Path 899" d="M137.69,84.504c-.511.16-1.042.247-1.578.26-.92.004-1.833-.15-2.7-.457-1.091-.371-2.066-1.022-2.827-1.887-1.633-2.096-1.814-4.979-.457-7.263.612-.977,1.475-1.772,2.5-2.3,1.059-.562,2.24-.852,3.439-.845,1.153-.019,2.29.263,3.3.82.96.535,1.765,1.31,2.336,2.249.579.93.884,2.004.879,3.1-.001,1.116-.302,2.212-.871,3.172-.578,1-1.399,1.838-2.388,2.435-.512.31-1.063.55-1.638.715M131.031,78.103c.006.981.222,1.95.634,2.841.397.91,1.022,1.702,1.814,2.3.787.591,1.748.903,2.732.887,1.359.056,2.653-.58,3.439-1.69.781-1.146,1.171-2.514,1.112-3.9.034-1.478-.448-2.922-1.362-4.084-.441-.557-.995-1.013-1.625-1.34-.595-.325-1.261-.499-1.939-.505-.542-.015-1.082.058-1.6.216-.406.138-.788.337-1.134.59-.342.252-.645.553-.9.893-.259.347-.476.723-.646,1.121-.354.846-.533,1.755-.526,2.672" fill="#002f6c" stroke-width="0"/>
              <path id="Path_900" data-name="Path 900" d="M149.188,72.722c-.965,0-1.448.385-1.448,1.155v6.172c-.037,1.048.374,2.062,1.129,2.789.783.734,1.828,1.123,2.9,1.081,1.09.045,2.16-.306,3.012-.987.795-.681,1.23-1.692,1.177-2.737v-5.482c.024-.385-.026-.771-.147-1.138-.319-.611-.99-.953-1.672-.853-.033.005-.064-.018-.069-.052,0-.006,0-.012,0-.017v-.207c-.005-.033.018-.064.052-.069.006,0,.012,0,.017,0h4.241c.033-.005.064.018.069.052,0,.006,0,.012,0,.017v.207c0,.046-.063.069-.19.069-.614-.091-1.202.284-1.379.879-.027.089-.042.182-.043.276v5.647c0,2.522-.967,4.145-2.9,4.869-.618.241-1.275.367-1.939.371-2.304,0-4.002-.604-5.094-1.811-.566-.63-.869-1.453-.845-2.3v-6.9c0-.488-.296-.81-.888-.966-.143-.042-.291-.065-.44-.069-.121,0-.181-.023-.181-.069v-.207c0-.046.02-.069.06-.069h4.672c.033-.005.064.018.069.052,0,.006,0,.012,0,.017v.207c0,.046-.055.069-.164.069" fill="#002f6c" stroke-width="0"/>
              <path id="Path_901" data-name="Path 901" d="M160.221,84.531c-.046,0-.069-.057-.069-.172v-.1c0-.046.029-.069.086-.069.087-.006.173-.023.255-.052.111-.034.2-.057.254-.069.512-.047.898-.486.879-1v-9.1c0-.529-.098-.867-.293-1.013-.324-.176-.693-.253-1.06-.219h-.388c-.121,0-.181-.069-.181-.207-.007-.071.042-.135.112-.147h.06l4.836-.129h.871c.964.041,1.879.436,2.569,1.111.665.627,1.037,1.504,1.026,2.418-.046,1.394-.8,2.668-2,3.379-.329.199-.702.31-1.086.324l-2.586-.1h-.069c-.086,0-.129.04-.129.121v3.543c-.022.26.073.517.259.7.33.206.706.327,1.095.353l.362.057c.111.019.223.032.336.038.058,0,.086.023.086.069v.207c.005.033-.018.064-.052.069-.006,0-.012,0-.017,0l-5.156-.012ZM164.005,72.684l-.219.008c-.078,0-.177.007-.3.009s-.181.05-.181.142v5.559l.017.26c.017.119.071.183.164.188l.879.053c.846.033,1.664-.307,2.237-.931.574-.642.878-1.48.849-2.341.05-.813-.25-1.608-.823-2.186-.601-.537-1.389-.815-2.194-.776h-.224l-.207.009" fill="#002f6c" stroke-width="0"/>
            </g>
            <g id="Group_594" data-name="Group 594">
              <path id="Path_902" data-name="Path 902" d="M207.746,65.66l-1.256.058c-.082-.006-.154.053-.163.134l-.94,4.42c-.028.127-.041.258-.038.388,0,.152.062.297.173.4.124.117.276.201.441.244.383.092.777.131,1.17.115.038,0,.057.025.057.076l-.048.231c-.019.051-.048.077-.086.077h-5.134c-.044,0-.067-.026-.067-.077l.048-.231c.025-.051.104-.076.235-.076.161-.003.321-.017.479-.043.178-.026.349-.09.5-.187.361-.277.593-.689.643-1.141.019-.1.038-.2.057-.288l.067-.336c.032-.134.07-.3.115-.508s.1-.466.168-.786.15-.711.249-1.174l.36-1.687c.141-.661.303-1.433.488-2.315.467-2.166.7-3.31.7-3.432.028-.27-.136-.523-.393-.608-.393-.109-.801-.156-1.208-.139h-.5c-.038,0-.058-.029-.058-.087l.058-.249c.032-.1.073-.144.125-.144h4.764c1.282-.094,2.564.175,3.7.776.853.587,1.328,1.585,1.246,2.617-.013.75-.352,1.457-.93,1.936-.797.643-1.666,1.193-2.588,1.639-.179.09-.268.179-.268.269.007.111.043.218.105.311.07.118.172.285.306.5s.291.458.47.729c.179.271.379.562.6.872.221.31.455.618.7.925.246.307.5.6.762.881.246.266.508.516.786.748.412.398.945.647,1.515.709h.249c.255,0,.402.029.441.086.035.047.055.104.058.162v.154c0,.128-.1.192-.3.192h-.719c-1.821-.053-3.499-1-4.486-2.531-.377-.504-.692-.958-.945-1.361-.253-.403-.46-.723-.623-.958-.163-.237-.305-.452-.426-.647s-.195-.318-.22-.37c-.026-.049-.06-.094-.1-.133-.087-.098-.214-.152-.345-.145M209.122,58.751l-.479-.009c-.252-.035-.508.025-.719.168-.089.088-.152.199-.182.321l-1.169,5.512c-.026.105-.039.213-.039.321,0,.111.165.167.494.168.37-.004.738-.046,1.1-.124.396-.081.783-.201,1.155-.359.363-.154.709-.347,1.031-.575.308-.216.585-.472.824-.762.482-.546.751-1.247.758-1.975.04-.736-.236-1.454-.758-1.975-.55-.494-1.274-.75-2.013-.709" fill="#002f6c" stroke-width="0"/>
              <path id="Path_903" data-name="Path 903" d="M221.032,71.285c.8-.066,1.568-.343,2.224-.805l.134.24c-.684.524-1.456.92-2.281,1.169-.368.115-.751.173-1.136.173-.344.011-.683-.074-.982-.244-.269-.164-.495-.389-.661-.657-.344-.62-.51-1.323-.48-2.032.133-1.431.664-2.796,1.534-3.94.552-.774,1.308-1.378,2.185-1.745.37-.165.769-.256,1.174-.269.273-.009.546.021.81.091.185.058.358.151.508.274.312.234.494.602.489.992.01.36-.078.717-.254,1.031-.171.29-.398.544-.666.748-.29.22-.606.404-.94.547-.349.152-.706.285-1.069.4-.361.115-.716.219-1.064.312s-.653.187-.916.283c-.201.463-.305.962-.307,1.467-.086.729.273,1.438.911,1.8.246.115.515.171.786.163M219.775,67.276c0,.109.086.163.259.163.73-.18,1.428-.469,2.071-.858.368-.245.688-.555.944-.916.22-.342.332-.743.321-1.15.049-.355-.116-.705-.422-.892-.144-.06-.299-.087-.455-.077-.234.007-.463.071-.667.187-.241.129-.458.298-.642.5-.197.214-.371.449-.518.7-.151.258-.285.525-.4.8-.204.497-.367,1.01-.489,1.534" fill="#002f6c" stroke-width="0"/>
              <path id="Path_904" data-name="Path 904" d="M230.762,70.353c.025-.118.051-.23.077-.336.026-.105.042-.213.048-.321.006-.109-.016-.163-.067-.163-.071,0-.227.107-.469.321l-.671.589c-.205.179-.42.365-.647.556-.227.191-.449.364-.667.518-.305.277-.679.466-1.083.546-.223.003-.434-.105-.561-.288-.15-.205-.263-.435-.331-.68-.124-.42-.188-.856-.191-1.294.033-1.415.57-2.771,1.515-3.825.935-1.13,2.166-1.976,3.556-2.444.685-.235,1.404-.355,2.128-.355.109,0,.163.089.163.268l-1.447,6.634c-.007.051-.013.1-.019.153-.012.084-.019.169-.019.254.001.084.028.166.077.235.032.065.096.108.168.115.086-.011.167-.05.23-.11.093-.074.187-.156.283-.245.141-.148.311-.266.5-.345.1,0,.154.058.154.173s-.345.447-1.036.978c-.376.36-.823.638-1.313.815-.2,0-.337-.131-.412-.393-.04-.155-.059-.314-.057-.474,0-.162.009-.323.029-.484.019-.147.042-.281.067-.4M232.023,64.422c0-.102-.121-.153-.364-.153-.289.007-.575.05-.853.129-.326.086-.641.21-.939.369-1.124.606-1.909,1.695-2.128,2.953-.115.475-.191.959-.225,1.447-.014.268-.014.537,0,.805.013.167.047.331.1.489.081.323.377.547.71.537.54-.294,1.041-.654,1.49-1.074l1.27-1.141.939-4.361Z" fill="#002f6c" stroke-width="0"/>
              <path id="Path_905" data-name="Path 905" d="M237.487,70.913c0,.141.08.211.24.211.255,0,.706-.339,1.351-1.016l.154-.153.182.182c-.295.426-.662.798-1.083,1.1-.422.421-.959.708-1.543.825-.382-.019-.69-.319-.719-.7-.003-.127.007-.254.029-.379l2.819-13.152c.022-.081.035-.165.038-.249,0-.16-.071-.24-.211-.24-.17.014-.335.063-.484.144l-.647.306-.125-.3c.93-.551,1.896-1.042,2.89-1.467.124,0,.186.075.187.225-.068.542-.169,1.08-.3,1.611-.2.923-.443,2.053-.728,3.389s-.535,2.499-.748,3.489c-.214.991-.394,1.831-.541,2.521-.147.69-.268,1.262-.365,1.716-.096.454-.171.807-.225,1.059-.054.252-.092.439-.115.561-.022.121-.04.211-.053.269l-.003.048Z" fill="#002f6c" stroke-width="0"/>
              <path id="Path_906" data-name="Path 906" d="M260.769,59.593c0-.613-.543-.92-1.629-.92-.038,0-.058-.026-.058-.077l.048-.23c.007-.048.051-.082.1-.077h4.994c.038,0,.058.025.058.077l-.048.23c-.013.051-.088.077-.225.077-.165.002-.33.017-.493.043-.181.025-.354.088-.508.187-.366.274-.602.687-.652,1.141l-2.167,10.228c-.028.126-.041.254-.038.383,0,.151.063.296.173.4.123.119.275.205.441.249.383.092.776.131,1.169.115.038,0,.058.026.058.077l-.048.23c-.019.051-.048.077-.086.077h-5.138c-.045,0-.067-.026-.067-.077l.048-.23c.025-.051.104-.077.235-.077.161-.003.321-.017.48-.043.178-.026.349-.09.5-.187.374-.309.612-.75.666-1.232.133-.617.248-1.158.345-1.625.097-.467.18-.855.249-1.165.067-.31.118-.553.153-.729s.059-.312.072-.407c.018-.079.031-.159.038-.24,0-.389-.167-.584-.5-.584h-6.356c-.319,0-.54.243-.661.728-.071.307-.189.856-.355,1.649s-.281,1.339-.345,1.639c-.067.3-.116.536-.149.709-.033.173-.057.304-.072.393-.026.117-.038.236-.038.355.007.138.069.268.172.36.123.123.274.214.441.264.379.094.77.132,1.16.115.039,0,.057.026.057.077l-.048.23c-.019.051-.048.077-.086.077h-5.138c-.044,0-.067-.026-.067-.077l.048-.23c.025-.051.104-.077.235-.077.161-.003.321-.017.479-.043.178-.026.349-.09.5-.187.358-.279.589-.69.642-1.141l2.176-10.228c.023-.085.036-.171.038-.259,0-.595-.531-.892-1.592-.891-.046.009-.091-.021-.1-.067-.002-.011-.002-.022,0-.033l.048-.211c.007-.048.051-.082.1-.077h4.994c.038,0,.057.025.057.077l-.048.23c-.013.051-.088.077-.225.077-.165.002-.33.017-.493.043-.181.025-.354.089-.508.187-.371.304-.607.741-.657,1.218-.125.607-.237,1.138-.336,1.591s-.181.832-.244,1.136c-.067.303-.116.54-.149.709-.035.169-.062.3-.081.379s-.032.138-.039.163c-.016.056-.025.114-.028.173,0,.141.1.211.3.211h6.825c.231,0,.418-.333.561-1,.143-.667.26-1.211.35-1.634.089-.422.163-.772.22-1.05.057-.278.102-.494.134-.647.032-.153.058-.268.077-.345.014-.07.023-.14.029-.211" fill="#002f6c" stroke-width="0"/>
              <path id="Path_907" data-name="Path 907" d="M267.778,71.285c.8-.066,1.568-.343,2.224-.805l.134.24c-.684.524-1.457.92-2.282,1.169-.368.115-.751.173-1.136.173-.344.011-.683-.074-.982-.244-.269-.164-.495-.389-.661-.657-.344-.62-.509-1.324-.479-2.032.133-1.431.664-2.796,1.534-3.94.552-.774,1.309-1.378,2.186-1.745.37-.165.769-.256,1.174-.269.273-.009.546.021.81.091.185.058.358.151.508.274.312.234.494.602.489.992.01.36-.078.717-.254,1.031-.171.29-.398.544-.666.748-.29.22-.606.403-.94.547-.349.152-.706.285-1.069.4-.361.115-.716.219-1.064.312s-.653.187-.916.283c-.201.463-.306.962-.307,1.467-.086.729.273,1.438.911,1.8.246.115.515.171.786.163M266.522,67.276c0,.109.086.163.259.163.73-.18,1.428-.469,2.071-.858.368-.245.688-.555.944-.916.22-.342.332-.743.321-1.15.049-.355-.116-.705-.422-.892-.144-.06-.299-.087-.455-.077-.234.007-.463.071-.666.187-.241.129-.458.298-.642.5-.197.214-.371.449-.518.7-.151.258-.284.525-.4.8-.204.497-.367,1.01-.489,1.534" fill="#002f6c" stroke-width="0"/>
              <path id="Path_908" data-name="Path 908" d="M274.651,70.913c0,.141.08.211.24.211.255,0,.706-.339,1.351-1.016l.154-.153.182.182c-.295.426-.662.798-1.083,1.1-.422.421-.959.708-1.543.825-.382-.019-.69-.319-.719-.7-.003-.127.007-.254.029-.379l2.818-13.152c.022-.081.035-.165.038-.249,0-.16-.07-.24-.211-.24-.17.014-.335.063-.484.144l-.647.306-.125-.3c.93-.551,1.896-1.041,2.89-1.467.125,0,.187.075.187.225-.069.542-.169,1.08-.3,1.611-.2.923-.443,2.053-.728,3.389-.285,1.336-.535,2.499-.748,3.489-.214.991-.394,1.831-.541,2.521s-.268,1.262-.365,1.716c-.096.454-.171.807-.225,1.059s-.092.439-.115.561c-.022.122-.04.211-.053.269l-.002.048Z" fill="#002f6c" stroke-width="0"/>
              <path id="Path_909" data-name="Path 909" d="M284.861,71.105c-.348.299-.745.536-1.174.7-.434.17-.895.256-1.361.254-.482-.003-.956-.125-1.38-.355l-1.007,4.755c-.023.081-.036.165-.039.249-.014.275.169.52.436.585.407.111.829.159,1.251.144l-.067.307h-4.688l.067-.307c.511.051,1.015-.149,1.352-.537.287-.507.479-1.063.566-1.639l2.2-10.353v-.038c0-.179-.074-.269-.221-.269-.096,0-.256.113-.479.34l-.882.9-.23-.239c.446-.588.976-1.108,1.572-1.543.406-.423.92-.728,1.486-.882.089.004.175.032.249.081.085.047.137.138.134.235-.021.314-.072.626-.153.93l-.278,1.236c-.007.028-.01.058-.009.087,0,.108.035.162.105.163.099-.001.195-.038.268-.105.083-.067.206-.182.369-.345.163-.163.345-.341.547-.532.2-.195.412-.395.637-.6.225-.205.445-.396.661-.571.297-.291.671-.49,1.078-.575.227-.003.441.104.575.287.158.207.276.441.35.69.145.477.216.973.211,1.472,0,.532-.046,1.062-.139,1.586-.089.512-.227,1.014-.412,1.5-.177.466-.403.911-.676,1.328-.257.396-.568.754-.925,1.064M285.124,68.577c.171-.45.305-.913.4-1.385.089-.392.138-.791.149-1.193,0-.313-.006-.556-.019-.729-.013-.167-.047-.331-.1-.489-.081-.323-.376-.547-.709-.537-.398.218-.759.498-1.069.829-.374.38-.694.709-.959.987-.265.278-.555.57-.868.877l-.69,3.259c-.026.107-.039.216-.038.326.002.126.019.252.053.374.035.135.095.261.177.374.182.255.478.405.791.4.303.006.6-.076.858-.235.276-.18.525-.4.738-.652.262-.305.495-.634.695-.982.228-.392.424-.803.585-1.227" fill="#002f6c" stroke-width="0"/>
              <path id="Path_910" data-name="Path 910" d="M297.385,63.916c0-.147-.118-.221-.355-.22h-.872l.086-.374c.888-.025,1.361-.163,1.419-.412.006-.044.022-.128.048-.249s.053-.253.082-.393.056-.276.082-.407.056-.281.091-.451.1-.444.2-.824c.103-.403.233-.798.389-1.184.169-.421.369-.828.6-1.218.236-.402.53-.767.872-1.083.765-.708,1.776-1.09,2.818-1.064.289-.022.577.056.815.22.3.237.45.444.451.623,0,.422-.167.633-.5.633-.263-.012-.514-.112-.714-.283-.246-.188-.439-.325-.58-.412-.167-.093-.356-.138-.547-.129-.211-.002-.42.033-.618.105-.178.064-.342.161-.484.287-.251.273-.446.592-.575.939-.273.786-.491,1.59-.652,2.406-.16.811-.253,1.278-.278,1.4s-.051.253-.077.393c-.067.377-.102.588-.105.633,0,.217.1.326.3.326h1.222l-.115.518h-1.371c-.1-.005-.19.061-.215.158-.038.115-.068.232-.091.35l-1.735,8.187c-.266,1.215-.766,2.367-1.473,3.391-.506.803-1.231,1.445-2.09,1.85-.363.183-.762.286-1.169.3-.257.012-.514-.017-.762-.086-.146-.052-.284-.126-.407-.22-.188-.118-.312-.316-.336-.537,0-.422.167-.633.5-.633.281.018.55.116.776.283.288.189.513.326.676.412.156.084.331.129.508.129.176,0,.348-.046.5-.134.159-.092.303-.208.426-.345.273-.3.488-.648.633-1.026.382-1.102.686-2.23.911-3.374l1.706-8.407c.007-.025.01-.051.009-.077" fill="#002f6c" stroke-width="0"/>
              <path id="Path_911" data-name="Path 911" d="M307.232,63.178c.377,0,.738.333,1.083,1,.35.636.538,1.349.546,2.075.042,1.096-.269,2.176-.886,3.082-.274.411-.598.786-.964,1.117-.363.33-.762.618-1.189.858-.79.48-1.693.741-2.617.757-.345,0-.697-.335-1.055-1.006-.33-.583-.515-1.238-.537-1.908-.004-.56.075-1.117.235-1.653.151-.502.367-.982.643-1.428.269-.434.589-.835.953-1.193.353-.349.745-.655,1.17-.911.784-.497,1.689-.769,2.617-.786M303.411,66.733c-.119.382-.208.773-.268,1.169-.055.338-.086.679-.091,1.021,0,.275.025.55.077.82.051.264.135.52.25.762.166.49.615.828,1.131.853.867,0,1.586-.556,2.157-1.668.509-1.007.768-2.122.757-3.25.021-.708-.162-1.406-.527-2.013-.159-.314-.474-.518-.825-.537-.311-.002-.617.077-.887.23-.28.161-.53.37-.738.618-.233.278-.432.582-.594.906-.178.349-.325.713-.441,1.088" fill="#002f6c" stroke-width="0"/>
              <path id="Path_912" data-name="Path 912" d="M316.307,64.721l-.469-.077c-.466.035-.899.25-1.208.6-.515.483-.882,1.103-1.057,1.787-.067.281-.13.565-.191.853l-.825,3.815c-.077.032-.164.07-.264.115s-.2.086-.311.124c-.186.079-.384.127-.585.144-.167,0-.25-.105-.25-.316.045-.37.111-.738.2-1.1.133-.627.28-1.315.441-2.066s.294-1.369.4-1.855c.105-.485.185-.861.239-1.126.054-.265.097-.459.129-.58.021-.089.037-.178.048-.269,0-.109-.038-.163-.115-.163-.148.01-.286.079-.383.192l-.805.786c-.022.027-.053.044-.087.048-.141,0-.211-.067-.211-.2s.147-.333.441-.6c.294-.272.532-.488.714-.647s.319-.281.412-.365c.093-.083.182-.16.269-.23s.177-.138.273-.2c.166-.121.361-.197.565-.22.211.032.316.256.316.671l-.115,1.294c0,.134.045.2.134.2.051,0,.174-.133.369-.4.195-.267.348-.465.46-.594.111-.131.229-.267.35-.407.118-.138.25-.263.393-.374.265-.238.604-.377.959-.393.185,0,.307.15.364.451.019.078.029.158.029.239,0,.563-.211.85-.633.863" fill="#002f6c" stroke-width="0"/>
              <path id="Path_913" data-name="Path 913" d="M329.631,65.66l-1.256.058c-.082-.006-.154.053-.163.134l-.94,4.42c-.028.127-.041.258-.038.388,0,.152.062.297.173.4.124.117.276.201.441.244.383.092.777.131,1.17.115.038,0,.057.025.057.076l-.048.231c-.019.051-.048.077-.086.077h-5.142c-.044,0-.067-.026-.067-.077l.048-.231c.025-.051.104-.076.235-.076.161-.003.321-.017.479-.043.178-.026.349-.09.5-.187.361-.277.593-.689.643-1.141.019-.1.038-.2.057-.288l.067-.336c.032-.134.07-.3.115-.508s.1-.466.168-.786.15-.711.249-1.174l.359-1.687c.141-.661.304-1.433.489-2.315.467-2.166.7-3.31.7-3.432.028-.27-.136-.523-.393-.608-.393-.109-.801-.156-1.208-.139h-.5c-.038,0-.058-.029-.058-.087l.058-.249c.032-.096.073-.144.124-.144h4.765c1.282-.094,2.564.175,3.7.776.853.587,1.328,1.585,1.246,2.617-.013.75-.353,1.457-.93,1.936-.798.643-1.666,1.193-2.589,1.639-.179.09-.268.179-.268.269.007.111.043.218.105.311.07.118.173.284.306.5s.291.457.47.729.378.562.6.872.454.618.7.925.5.6.762.881c.246.266.508.516.786.748.412.398.945.648,1.515.709h.249c.255,0,.402.029.441.086.035.047.055.104.058.162v.154c0,.128-.1.192-.3.192h-.719c-1.821-.054-3.499-1-4.486-2.531-.377-.504-.692-.958-.945-1.361-.253-.403-.46-.723-.623-.958-.163-.237-.305-.452-.426-.647s-.195-.318-.22-.37c-.026-.049-.06-.094-.1-.133-.087-.098-.214-.152-.345-.145M330.999,58.751l-.479-.009c-.252-.035-.508.025-.719.168-.089.088-.152.199-.182.321l-1.169,5.512c-.026.105-.039.213-.039.321,0,.111.165.167.494.168.37-.004.738-.046,1.1-.124.396-.081.783-.201,1.155-.359.363-.154.709-.347,1.031-.575.308-.216.585-.472.824-.762.482-.546.751-1.247.758-1.975.04-.736-.236-1.454-.758-1.975-.55-.495-1.274-.75-2.013-.709" fill="#002f6c" stroke-width="0"/>
              <path id="Path_914" data-name="Path 914" d="M342.917,71.285c.799-.065,1.567-.343,2.223-.805l.134.24c-.684.524-1.456.92-2.281,1.169-.368.115-.751.173-1.136.173-.344.011-.683-.074-.982-.244-.269-.164-.495-.389-.661-.657-.344-.62-.51-1.323-.48-2.032.132-1.431.664-2.796,1.534-3.94.552-.774,1.308-1.378,2.185-1.745.37-.165.769-.256,1.174-.269.273-.009.546.021.81.091.186.057.359.151.509.274.312.234.494.602.489.992.01.36-.078.717-.254,1.031-.171.29-.398.544-.666.748-.29.22-.606.403-.94.547-.349.152-.706.285-1.069.4-.361.115-.715.219-1.064.312-.349.093-.654.187-.915.283-.201.463-.306.962-.307,1.467-.086.729.273,1.438.911,1.8.246.115.515.171.786.163M341.661,67.276c0,.109.086.163.259.163.73-.18,1.428-.469,2.071-.858.368-.245.688-.555.944-.916.22-.342.332-.743.321-1.15.049-.355-.116-.705-.422-.892-.144-.06-.299-.087-.455-.077-.234.007-.463.071-.667.187-.241.129-.458.298-.642.5-.197.214-.371.449-.518.7-.151.257-.285.525-.4.8-.204.497-.367,1.01-.489,1.534" fill="#002f6c" stroke-width="0"/>
              <path id="Path_915" data-name="Path 915" d="M352.648,70.353c.025-.118.051-.23.076-.336.026-.105.042-.213.049-.321.006-.109-.017-.163-.068-.163-.07,0-.226.107-.469.321l-.671.589c-.205.179-.421.365-.647.556-.227.192-.449.364-.666.518-.305.277-.679.466-1.083.546-.223.003-.434-.105-.561-.288-.15-.205-.263-.435-.331-.68-.124-.42-.188-.856-.192-1.294.033-1.415.57-2.771,1.515-3.825.935-1.13,2.166-1.976,3.556-2.444.685-.235,1.404-.355,2.128-.355.109,0,.163.089.163.268l-1.447,6.634c-.007.051-.013.1-.019.153-.012.084-.019.169-.019.254.001.084.028.166.076.235.032.065.096.108.168.115.086-.011.167-.05.23-.11.093-.074.187-.156.282-.245.269-.23.434-.345.5-.345.1,0,.154.058.154.173s-.345.447-1.035.978c-.376.36-.823.638-1.313.815-.2,0-.336-.131-.412-.393-.04-.155-.059-.314-.057-.474-.001-.162.008-.323.028-.484.019-.147.042-.28.068-.4M353.907,64.422c0-.1-.122-.153-.364-.153-.289.007-.576.05-.854.129-.326.086-.641.21-.939.369-1.124.606-1.909,1.695-2.128,2.953-.115.475-.191.959-.225,1.447-.014.268-.014.537,0,.805.013.167.047.331.1.489.081.323.377.547.71.537.54-.294,1.041-.655,1.49-1.074l1.27-1.141.94-4.361Z" fill="#002f6c" stroke-width="0"/>
              <path id="Path_916" data-name="Path 916" d="M359.373,70.913c0,.141.08.211.24.211.256,0,.706-.339,1.351-1.016l.154-.153.182.182c-.295.426-.662.798-1.083,1.1-.422.421-.959.708-1.543.825-.382-.019-.69-.319-.719-.7-.003-.127.006-.254.028-.379l2.819-13.152c.022-.081.035-.165.038-.249,0-.16-.07-.24-.211-.24-.17.013-.335.063-.484.144l-.647.306-.125-.3c.93-.551,1.896-1.041,2.89-1.467.125,0,.187.075.187.225-.069.542-.169,1.08-.3,1.611-.2.923-.443,2.053-.728,3.389s-.535,2.499-.748,3.489c-.214.991-.394,1.831-.541,2.521s-.268,1.262-.364,1.716c-.096.454-.171.807-.225,1.059s-.092.439-.115.561c-.022.121-.039.211-.052.269l-.004.048Z" fill="#002f6c" stroke-width="0"/>
              <path id="Path_917" data-name="Path 917" d="M374.583,66.351c0-.2.105-.3.316-.3,1.22.073,2.421-.326,3.355-1.113.874-.863,1.332-2.062,1.256-3.288,0-1.942-1.128-2.913-3.384-2.913-.251-.034-.507.024-.719.163-.091.089-.155.202-.182.326l-2.349,11.043c-.021.125-.03.252-.029.379.002.149.065.291.173.393.123.123.274.214.441.264.379.094.77.132,1.16.115.038,0,.057.026.057.076l-.048.231c-.019.051-.047.077-.086.077h-5.138c-.045,0-.067-.025-.067-.077l.048-.231c.025-.051.104-.076.235-.076.161-.003.321-.017.479-.044.178-.025.349-.089.5-.186.36-.277.592-.689.642-1.141.019-.102.038-.198.057-.288.019-.09.042-.2.067-.326s.059-.291.1-.489.1-.454.163-.767.15-.7.249-1.16.217-1.018.355-1.673.3-1.423.493-2.305c.467-2.185.7-3.361.7-3.527.006-.144-.034-.287-.115-.407-.079-.107-.189-.186-.316-.225-.341-.089-.693-.124-1.045-.105h-.6c-.045,0-.067-.026-.067-.077l.077-.316c0-.064.029-.1.087-.1l2.933.01h1.97c.452-.006.904.023,1.351.087.355.057.705.145,1.045.263.338.117.663.27.968.456.297.18.567.403.8.661.484.486.756,1.145.757,1.831.015.585-.071,1.169-.254,1.725-.159.448-.396.865-.7,1.232-.299.356-.654.662-1.05.906-.413.254-.853.459-1.313.613-.986.308-2.015.456-3.048.441-.217,0-.325-.054-.326-.163" fill="#002f6c" stroke-width="0"/>
              <path id="Path_918" data-name="Path 918" d="M384.5,71.285c.8-.066,1.568-.343,2.224-.805l.134.24c-.684.524-1.456.92-2.281,1.169-.368.115-.751.173-1.136.173-.344.011-.683-.074-.982-.244-.269-.164-.495-.389-.661-.657-.344-.62-.509-1.324-.479-2.032.133-1.431.664-2.796,1.534-3.94.552-.774,1.308-1.378,2.185-1.745.37-.165.769-.256,1.174-.269.273-.009.546.021.81.091.186.058.358.151.508.274.312.234.494.602.489.992.01.36-.078.717-.254,1.031-.171.29-.398.544-.666.748-.29.22-.606.404-.94.547-.349.152-.706.285-1.069.4-.361.115-.716.219-1.064.312s-.653.187-.916.283c-.201.463-.305.962-.307,1.467-.086.729.273,1.438.911,1.8.246.115.515.171.786.163M383.244,67.276c0,.109.086.163.259.163.73-.18,1.428-.469,2.071-.858.368-.245.688-.555.944-.916.22-.342.332-.743.321-1.15.049-.355-.116-.705-.422-.892-.144-.06-.299-.087-.455-.077-.234.007-.463.071-.666.187-.241.129-.458.298-.642.5-.197.214-.371.449-.518.7-.151.258-.284.525-.4.8-.204.497-.367,1.01-.489,1.534" fill="#002f6c" stroke-width="0"/>
              <path id="Path_919" data-name="Path 919" d="M395.809,63.178c.377,0,.738.333,1.083,1,.35.636.538,1.349.546,2.075.042,1.096-.269,2.176-.886,3.082-.273.411-.597.786-.963,1.117-.363.33-.762.617-1.189.858-.79.48-1.693.741-2.617.757-.345,0-.697-.335-1.054-1.006-.331-.583-.515-1.238-.537-1.908-.004-.56.075-1.117.235-1.653.151-.502.367-.982.642-1.428.269-.434.589-.835.954-1.193.353-.349.745-.655,1.17-.911.784-.497,1.689-.769,2.617-.786M391.99,66.733c-.119.382-.209.773-.269,1.169-.055.338-.086.679-.091,1.021,0,.275.026.55.077.82.051.263.135.519.249.762.166.49.615.828,1.131.853.867,0,1.586-.556,2.157-1.668.509-1.007.768-2.122.757-3.25.021-.708-.162-1.407-.528-2.013-.159-.313-.473-.518-.824-.537-.311-.002-.617.077-.887.23-.28.161-.53.37-.738.618-.233.278-.432.582-.594.906-.178.349-.325.713-.441,1.088" fill="#002f6c" stroke-width="0"/>
              <path id="Path_920" data-name="Path 920" d="M405.358,71.105c-.348.299-.745.535-1.174.7-.434.169-.896.256-1.362.254-.482-.003-.956-.124-1.38-.355l-1.007,4.755c-.023.081-.036.165-.039.249-.014.275.169.521.437.585.407.111.829.159,1.251.144l-.067.307h-4.688l.067-.307c.511.051,1.015-.149,1.351-.537.287-.507.479-1.063.565-1.639l2.205-10.353v-.038c0-.179-.074-.269-.22-.269-.096,0-.256.113-.48.34l-.882.9-.23-.239c.446-.588.976-1.108,1.572-1.543.406-.423.92-.728,1.486-.882.089.004.175.032.249.081.085.047.137.138.134.235-.021.314-.072.626-.153.93l-.278,1.236c-.008.028-.011.058-.01.087,0,.108.035.162.105.163.099-.001.194-.039.268-.105.083-.067.206-.182.369-.345.163-.163.345-.341.547-.532.2-.195.412-.395.637-.6.225-.205.445-.396.661-.571.297-.291.671-.49,1.078-.575.227-.003.441.104.575.287.158.207.276.441.35.69.145.477.216.973.211,1.472,0,.532-.046,1.062-.139,1.586-.089.512-.227,1.014-.412,1.5-.177.466-.403.911-.676,1.328-.257.396-.568.754-.925,1.064M405.623,68.577c.171-.45.305-.913.4-1.385.088-.392.138-.791.148-1.193,0-.313-.006-.556-.019-.729-.013-.167-.047-.331-.1-.489-.081-.323-.376-.547-.709-.537-.398.218-.759.498-1.069.829-.374.38-.694.709-.959.987-.265.278-.555.57-.868.877l-.69,3.259c-.026.107-.039.216-.038.326.001.126.019.252.053.374.035.135.095.261.177.374.182.255.478.405.791.4.303.006.6-.076.858-.235.276-.18.525-.4.738-.652.262-.305.495-.633.695-.982.228-.392.424-.803.585-1.227" fill="#002f6c" stroke-width="0"/>
              <path id="Path_921" data-name="Path 921" d="M411.298,70.913c0,.141.08.211.24.211.255,0,.706-.339,1.351-1.016l.153-.153.182.182c-.296.426-.662.798-1.083,1.1-.422.421-.959.708-1.543.825-.382-.019-.69-.319-.719-.7-.003-.127.006-.254.028-.379l2.818-13.152c.022-.081.035-.165.038-.249,0-.16-.07-.24-.211-.24-.17.014-.335.063-.484.144l-.647.306-.124-.3c.93-.551,1.896-1.041,2.89-1.467.125,0,.187.075.187.225-.068.542-.169,1.08-.3,1.611-.2.923-.443,2.053-.728,3.389s-.535,2.499-.748,3.489c-.214.991-.394,1.831-.541,2.521s-.268,1.262-.365,1.716c-.096.454-.171.807-.225,1.059s-.092.439-.115.561c-.022.122-.04.211-.053.269v.048Z" fill="#002f6c" stroke-width="0"/>
              <path id="Path_922" data-name="Path 922" d="M418.916,71.285c.8-.066,1.568-.343,2.224-.805l.134.24c-.684.524-1.456.92-2.281,1.169-.368.115-.751.173-1.136.173-.344.011-.684-.073-.982-.244-.269-.164-.496-.389-.662-.657-.344-.62-.509-1.324-.479-2.032.132-1.431.664-2.796,1.534-3.94.552-.774,1.308-1.378,2.185-1.745.371-.165.77-.256,1.175-.269.273-.009.546.021.81.091.186.058.358.151.508.274.312.234.494.602.489.992.01.36-.078.717-.254,1.031-.171.29-.398.544-.666.748-.29.22-.605.404-.939.547-.349.152-.706.285-1.069.4-.361.115-.716.219-1.064.312-.348.093-.653.187-.916.283-.201.463-.305.962-.307,1.467-.086.729.273,1.438.911,1.8.246.115.515.171.786.163M417.661,67.276c0,.109.086.163.258.163.73-.18,1.428-.469,2.071-.858.369-.245.689-.555.945-.916.221-.342.333-.743.321-1.15.049-.355-.116-.705-.422-.892-.144-.06-.299-.087-.455-.077-.234.007-.463.071-.667.187-.241.128-.458.298-.642.5-.197.214-.371.449-.518.7-.151.258-.284.525-.4.8-.204.497-.367,1.01-.489,1.534" fill="#002f6c" stroke-width="0"/>
            </g>
          </g>
        </g>
      </g>
    </g>
  </g>
</svg>