<?xml version="1.0" encoding="UTF-8"?>
<svg id="Layer_1" data-name="Layer 1" xmlns="http://www.w3.org/2000/svg" width="431.32" height="108.43" version="1.1" viewBox="0 0 431.32 108.43">
  <g id="Group_596" data-name="Group 596">
    <path id="Path_923" data-name="Path 923" d="M191.256,86.348h-1v-38.769h1v38.769Z" fill="#fff" isolation="isolate" opacity=".4" stroke-width="0"/>
    <g id="Group_591" data-name="Group 591">
      <g id="Group_592" data-name="Group 592">
        <g id="Group_584" data-name="Group 584">
          <g id="Group_583" data-name="Group 583">
            <g id="Group_567" data-name="Group 567" opacity=".28">
              <g id="Group_566" data-name="Group 566">
                <g id="Group_565" data-name="Group 565">
                  <path id="Path_878" data-name="Path 878" d="M89.972,31.429c.35-1.077,1.187-1.926,2.259-2.29v-3.03h-1.574l-1.025-10.185-39.318,19.784-10.175,5.12h10.79M68.029,32.339h0" fill="#fff" stroke-width="0"/>
                </g>
              </g>
            </g>
            <g id="Group_570" data-name="Group 570" opacity=".28">
              <g id="Group_569" data-name="Group 569">
                <g id="Group_568" data-name="Group 568">
                  <path id="Path_879" data-name="Path 879" d="M35.305,39.771l.347,1.058h.813l5.957-5.112L80.931,2.675h-4.084l-6.184-.01h-8.243l-22.404,30.658s-4.711,6.448-4.711,6.448Z" fill="#fff" stroke-width="0"/>
                </g>
              </g>
            </g>
            <g id="Group_573" data-name="Group 573" opacity=".28">
              <g id="Group_572" data-name="Group 572">
                <g id="Group_571" data-name="Group 571">
                  <path id="Path_880" data-name="Path 880" d="M33.156,33.222l1.288,3.927.012.037,3.746-9.548L48.008,2.648h-10.553l-2.173,15.423-2.126,15.151Z" fill="#fff" stroke-width="0"/>
                </g>
              </g>
            </g>
            <g id="Group_576" data-name="Group 576" opacity=".28">
              <g id="Group_575" data-name="Group 575">
                <g id="Group_574" data-name="Group 574">
                  <path id="Path_881" data-name="Path 881" d="M11.088,40.828h10.79l-10.084-5.074-6-3.018.234,1.629c.265,1.067.13,2.194-.378,3.169-.077.155-.144.315-.2.479-.008.027-.012.055-.017.082-.062.492-.025.992.109,1.47l5.545,1.263s.001,0,0,0Z" fill="#fff" stroke-width="0"/>
                </g>
              </g>
            </g>
            <g id="Group_579" data-name="Group 579" opacity=".28">
              <g id="Group_578" data-name="Group 578">
                <g id="Group_577" data-name="Group 577">
                  <path id="Path_882" data-name="Path 882" d="M25.553,40.828h.813l.347-1.058-5-6.85-9.061-12.4c-.555.575-1.311.912-2.11.943-.403,0-.8-.103-1.152-.3-.602-.381-1.066-.945-1.323-1.61-.04-.084-.131-.274-.2-.386-.064,0-.138.01-.2.015-.108.01-.221.017-.329.022-.062,0-.126.005-.188.005-.468-.012-.933-.069-1.39-.171l-.148-.03c-.239-.056-.482-.09-.727-.1-.021,0-.041,0-.062,0-.319,0-.388.086-.423.128-.187.299-.284.647-.277,1-.017.865.05,1.729.2,2.581l15.33,13.152s5.9,5.059,5.9,5.059Z" fill="#fff" stroke-width="0"/>
                </g>
              </g>
            </g>
            <g id="Group_582" data-name="Group 582" opacity=".28">
              <g id="Group_581" data-name="Group 581">
                <g id="Group_580" data-name="Group 580">
                  <path id="Path_883" data-name="Path 883" d="M27.564,37.175l.009-.027.086-.263,1.188-3.621-2.282-16.232.016-.05-2.014-14.354h-2.554c-2-.005-4-.008-6-.008h-1.408v1.519l8.944,22.792,4.015,10.244Z" fill="#fff" stroke-width="0"/>
                </g>
              </g>
            </g>
          </g>
        </g>
        <path id="Path_884" data-name="Path 884" d="M50.93,40.832h-15.278l-.347-1.058-.007-.021v-.013l-.831-2.534-.006-.017-.012-.037-1.288-3.927-.1-.317-.024-.073-.014-.044-2.006-6.114-1.891,5.738-.008.017-.124.377-.147.45-1.188,3.621-.086.263-.009.027-.774,2.359-.067.2-.011.033-.346,1.07h-15.277l5.958,4.221.079.056.08.057,6.279,4.449-4.635,14.128,12.159-8.593,12.16,8.593-4.634-14.128,6.279-4.45.08-.057.079-.056s5.957-4.22,5.957-4.22Z" fill="#fff" stroke-width="0"/>
        <g id="Group_589" data-name="Group 589">
          <g id="Group_593" data-name="Group 593">
            <path id="Path_885" data-name="Path 885" d="M68.476,36.832c-.021-.172-.073-.339-.154-.492" fill="#fff" stroke-width="0"/>
            <path id="Path_886" data-name="Path 886" d="M89.941,105.809h-29.595l-.707-.087c-.792-.294-1.583-.594-2.372-.892-1.588-.6-3.225-1.22-4.885-1.818l-25.87-9.36-.883-.322c-2.139-.777-4.279-1.553-6.419-2.33l-9.043-3.29c-2.26-.91-4.567-1.71-6.789-2.481l-.621-.215c.097-.842.391-1.649.858-2.356.055.017.119.04.159.054.334.133.689.207,1.048.218.184,0,.366-.024.544-.071.686-.226,1.25-.723,1.561-1.375.6-.907.991-1.936,1.143-3.013.242-1.475-.673-2.894-2.117-3.282-.284-.103-.553-.242-.8-.415-.845-.668-.9-2.986-.93-4.373,0,0-.007-.309-.01-.422,1.505-1.058,2.548-2.651,2.917-4.453.184-1.068.213-2.157.087-3.233-.147-.935-.102-1.89.133-2.807,1.026-1.83,2.505-3.366,4.294-4.462.777-.376,1.362-1.059,1.612-1.885.416-1.862-1.271-2.753-2.178-3.232-.223-.108-.437-.233-.641-.373-1.253-1.294-2.277-2.791-3.029-4.427-.159-.333-.308-.666-.446-1-.606-1.464-1.079-2.979-1.415-4.527v-.019c-.134-.478-.171-.978-.109-1.47.005-.027.01-.055.017-.082.056-.164.123-.324.2-.479.152-.308.276-.629.368-.96.152-.728.155-1.479.01-2.209l-.233-1.625-.286-1.992-.995-6.944c-.027-.19-.065-.413-.107-.665-.023-.142-.053-.32-.084-.521-.151-.851-.218-1.716-.2-2.58-.007-.353.089-.7.276-1,.035-.042.1-.126.423-.129.021,0,.041,0,.062,0,.245.01.488.044.727.1l.148.03c.457.102.922.159,1.39.171.062,0,.126,0,.188-.005.108,0,.221-.012.329-.022.057-.005.132-.012.2-.015.067.112.158.3.2.386.256.663.717,1.226,1.316,1.608.352.197.749.3,1.153.3.799-.031,1.555-.368,2.11-.943.22-.214.416-.452.584-.709.211-.328.4-.67.564-1.024,1.2-2.606,1.041-5.716.893-8.5-.047-.878-.092-1.706-.09-2.473V2.611h1.408c2,0,4,.002,6,.007h17.391l3.017.005h10.732l6.953.005h4.898c1.889,0,3.778.002,5.666.005h11.758c2.298.005,4.598.008,6.9.007h.317v13.284l.352,22.441h2.247V.058h-.34v.006h-9.474c-1.86-.005-3.72-.008-5.58-.007h-6.186c-1.78,0-3.561-.002-5.342-.007h-17.704c-1.088-.019-2.175-.027-3.261-.025l-2.353.002c-.863,0-1.729,0-2.592-.005h-5.379l-7.811-.012h-4.2C19.673.003,17.325,0,14.976,0h-2.976l-.007,1.3c-.007,1.375-.007,2.753-.007,4.128l-.005,2.376c0,.844.045,1.7.094,2.617.187,1.926.129,3.868-.175,5.779-.15.759-.434,1.484-.839,2.143l-.022.035c-.108.165-.248.305-.413.413-.065-.111-.146-.274-.2-.381-.279-.766-.856-1.386-1.6-1.719-.285-.104-.587-.155-.89-.151-.181,0-.346.015-.492.027-.07.007-.142.015-.213.017h-.074c-.297-.013-.591-.054-.88-.122l-.03-.005c-.472-.104-.954-.162-1.437-.173h-.022c-.917-.026-1.796.367-2.388,1.067-.2.242-.363.511-.485.8-.267.65-.408,1.346-.415,2.049,0,1.134.108,2.265.326,3.378l.007.047c.034.205.066.393.089.554l.737,5.143.288,1.978.491,3.434c.084.39.1.792.047,1.187-.057.178-.128.351-.213.518-.129.266-.239.541-.329.823-.025.085-.042.168-.062.253-.1.468-.127.949-.081,1.425.038.404.101.805.191,1.2.294,1.349.683,2.676,1.163,3.971.121.327.252.659.392,1,.929,2.333,2.303,4.464,4.044,6.274.377.342.804.625,1.266.839.237.119.468.25.692.393-.071.046-.166.108-.289.183-2.163,1.329-3.95,3.187-5.194,5.4-.544,1.351-.703,2.826-.46,4.262.097.814.09,1.637-.022,2.449-.23,1.205-.929,2.269-1.942,2.96-.366.195-.666.494-.863.859-.152.323-.218.681-.19,1.037.01.215.015.447.02.692.047,2.082.114,4.936,1.927,6.367.431.323.905.584,1.409.774.183.063.359.148.522.253.023.128.023.258,0,.386-.13.692-.403,1.35-.8,1.932-.012.022-.025.041-.035.061-.339-.135-.698-.21-1.063-.22-.057,0-.114,0-.173.005-2.389.183-3.027,3.513-3.334,5.111l-.017.079c-.097.426-.037.873.168,1.259.23.379.592.66,1.017.787l1.3.455c2.2.767,4.48,1.557,6.705,2.449l9.08,3.3,6.868,2.493,26.308,9.52c1.669.6,3.358,1.242,4.848,1.806l.121.047c.8.3,1.606.606,2.407.9l.039.015,1.225.176h9.4l12.763.005h9.607v.005h.64v-13.356l-2.6.036v10.705h0Z" fill="#fff" stroke-width="0"/>
            <g id="Group_595" data-name="Group 595">
              <path id="Path_887" data-name="Path 887" d="M58.178,64.636c.008.047-.022.092-.069.1-.01.002-.021.002-.031,0h-6.212c-.047.008-.092-.022-.1-.069-.002-.01-.002-.021,0-.031v-.292c0-.067.053-.1.158-.1,1.066-.013,1.989-.742,2.249-1.775l4.96-14.357c.009-.019.013-.04.012-.061l-.133-.4c0-.041.016-.061.048-.061h2.437c.022.01.044.018.067.024.033.012.058.039.067.073l5.142,14.43c.102.195.194.395.274.6.064.169.144.331.237.486.224.357.562.627.96.766.314.171.664.267,1.021.28.065,0,.1.036.1.109v.28c.008.047-.022.092-.069.1-.01.002-.021.002-.031,0h-7.44c-.047.008-.092-.022-.1-.069-.002-.01-.002-.021,0-.031v-.292c0-.067.15-.107.45-.122s.547-.031.742-.048c1.127-.121,1.69-.502,1.69-1.143,0-.057-.009-.115-.024-.17l-1.836-5.179c-.008-.016-.025-.053-.049-.109-.053-.24-.265-.412-.511-.413h-4.316c-.253.007-.478.164-.571.4-.016.032-.028.066-.037.1l-1.823,5.337v.109c.011.232.133.444.328.571.582.408,1.284.609,1.994.572h.316c.047-.008.092.022.1.069.002.01.002.021,0,.031v.285h0ZM61.778,55.81c.146,0,.219-.061.219-.182-.002-.075-.018-.15-.048-.219l-1.812-4.984c-.081-.219-.141-.328-.182-.328s-.106.113-.195.34l-1.7,4.972c-.033.083-.05.172-.049.261,0,.095.061.14.182.14h3.585Z" fill="#fff" stroke-width="0"/>
              <path id="Path_888" data-name="Path 888" d="M70.056,64.733c-.067,0-.1-.081-.1-.243v-.146c-.008-.047.022-.092.069-.1.01-.002.021-.002.031,0,.077-.003.155-.011.231-.024l.328-.048c.114-.016.219-.034.316-.054l.206-.043c.722-.066,1.266-.685,1.24-1.41v-12.84c.045-.618-.286-1.203-.839-1.483-.329-.178-.697-.27-1.07-.268h-.462c-.047.008-.092-.022-.1-.069-.002-.01-.002-.021,0-.031v-.292c0-.067.049-.1.146-.1l6.674-.183h1.228c1.351.063,2.632.619,3.6,1.563.953.907,1.48,2.173,1.453,3.488.04,1.307-.617,2.536-1.726,3.228-.368.241-.754.452-1.155.632l3.684,6.017c.587,1.008,1.494,1.791,2.577,2.225.082.014.139.087.134.17,0,.2-.133.3-.4.3-1.703.058-3.327-.718-4.352-2.079-.235-.308-.47-.652-.705-1.033l-3.149-4.935-2.893-.134h-.1c-.121,0-.182.057-.182.17v5.614c-.03.373.108.74.377,1,.383.268.833.424,1.3.45.162.024.361.059.6.1.158.035.318.058.48.067.085,0,.128.033.128.1v.292c.008.047-.022.092-.069.1-.01.002-.021.002-.031,0h-7.469ZM75.733,48.049c-.1,0-.2.008-.31.011s-.249.01-.419.013-.255.07-.255.2v7.367l.024.365c.024.17.101.259.231.267l1.24.073c2.277,0,3.651-.81,4.121-2.431.162-.569.24-1.159.231-1.751.058-1.135-.38-2.24-1.2-3.027-.837-.752-1.933-1.148-3.057-1.106-.113,0-.219,0-.316.005l-.292.013" fill="#fff" stroke-width="0"/>
              <path id="Path_889" data-name="Path 889" d="M89.736,49.538c0-.973-.559-1.459-1.677-1.459-.178,0-.268-.033-.268-.1v-.292c-.009-.047.022-.092.069-.1.01-.002.021-.002.031,0h6.09c.047-.008.091.022.1.069.002.01.002.021,0,.031v.292c0,.067-.178.1-.535.1s-.704.12-.985.34c-.355.374-.521.889-.45,1.4v12.971c0,.973.563,1.459,1.69,1.459.17,0,.255.032.255.1v.292c.009.047-.022.092-.069.1-.01.002-.021.002-.031,0h-6.09c-.047.008-.091-.022-.1-.069-.002-.01-.002-.021,0-.031v-.292c0-.067.178-.1.535-.1s.704-.12.985-.34c.355-.374.52-.889.45-1.4v-12.971Z" fill="#fff" stroke-width="0"/>
              <path id="Path_890" data-name="Path 890" d="M96.326,64.733c-.146,0-.219-.138-.219-.413-.016-.228.054-.453.195-.632l11.366-14.7c.034-.044.051-.098.049-.153,0-.06-.081-.091-.243-.091h-7.379c-.622-.021-1.222.232-1.641.693-.144.152-.254.332-.322.53-.102.333-.183.671-.243,1.014-.036.263-.099.521-.189.771-.032.038-.107.055-.225.055s-.192-.024-.225-.073l.182-3.732c0-.275.093-.413.28-.413h13.2c.129,0,.194.13.195.389.011.218-.044.434-.158.62l-10.929,14.138c-.024.041-.071.11-.14.207-.056.069-.091.154-.1.243,0,.219.186.329.559.328h8.571c.439-.02.856-.195,1.179-.492.409-.347.707-.806.857-1.32.193-.649.313-1.318.359-1.994.018-.117.126-.198.243-.182.138,0,.207.049.207.146v.571l-.26,3.772c-.008.089-.012.174-.012.255,0,.308-.114.462-.341.462h-14.816Z" fill="#fff" stroke-width="0"/>
              <path id="Path_891" data-name="Path 891" d="M126.195,64.694c-.721.225-1.47.348-2.225.365-1.296.006-2.583-.212-3.805-.644-1.539-.523-2.914-1.441-3.987-2.662-2.303-2.956-2.559-7.022-.644-10.243.865-1.378,2.085-2.496,3.532-3.239,1.494-.792,3.16-1.201,4.851-1.191,1.624-.027,3.227.371,4.65,1.155,1.354.755,2.49,1.848,3.295,3.173.817,1.311,1.247,2.826,1.24,4.371-.002,1.574-.426,3.119-1.228,4.474-.815,1.41-1.974,2.591-3.368,3.433-.722.437-1.499.776-2.31,1.009M116.811,55.663c.009,1.384.314,2.75.894,4.006.561,1.281,1.443,2.396,2.559,3.239,1.11.835,2.466,1.275,3.854,1.252,1.916.078,3.741-.819,4.85-2.383,1.1-1.616,1.649-3.542,1.568-5.495.048-2.085-.631-4.123-1.921-5.762-.622-.785-1.403-1.429-2.292-1.89-.839-.458-1.779-.703-2.735-.712-.765-.023-1.529.078-2.261.3-.572.195-1.112.475-1.6.832-.48.356-.906.78-1.264,1.259-.366.488-.672,1.019-.912,1.58-.5,1.193-.752,2.475-.742,3.769" fill="#fff" stroke-width="0"/>
              <path id="Path_892" data-name="Path 892" d="M135.265,64.733c-.047.008-.091-.022-.1-.069-.002-.01-.002-.021,0-.031v-.292c0-.065.04-.1.121-.1h.28c.309.021.619-.02.912-.122.6-.292.9-1.094.9-2.407v-12.625c0-.543-.527-.867-1.58-.972-.235-.024-.399-.036-.492-.037-.093,0-.14-.034-.14-.1v-.292c-.009-.047.022-.092.069-.1.01-.002.021-.002.031,0h4.449l11.532,12.758c.04.04.069.072.085.09.02.023.049.034.079.031.037,0,.055-.037.055-.11v-8.376c.083-1.07-.053-2.146-.4-3.161-.351-.538-.98-.827-1.617-.742h-.62c-.047.008-.091-.022-.1-.069-.002-.01-.002-.021,0-.031v-.292c-.009-.047.022-.092.069-.1.01-.002.021-.002.031,0h6.321c.047-.008.091.022.1.069.002.01.002.021,0,.031v.292c0,.067-.12.1-.359.1-.417.058-.818.198-1.179.413-.547.275-.821.616-.821,1.021v14.867c.01.132-.015.263-.073.382-.049.077-.164.116-.347.116-.144.011-.288-.027-.407-.109-.113-.097-.219-.203-.316-.316l-12.533-13.9c-.055-.067-.133-.11-.219-.121-.04,0-.061.041-.061.121v12.132c0,.737.583,1.224,1.75,1.459.244.056.492.089.742.1.17,0,.255.033.255.1v.292c.009.047-.022.092-.069.1-.01.002-.021.002-.031,0h-6.317Z" fill="#fff" stroke-width="0"/>
              <path id="Path_893" data-name="Path 893" d="M162.141,64.636c.008.047-.023.092-.069.1-.01.002-.021.002-.031,0h-6.212c-.047.008-.091-.022-.1-.069-.002-.01-.002-.021,0-.031v-.292c0-.067.053-.1.158-.1,1.066-.013,1.989-.742,2.249-1.775l4.96-14.357c.009-.019.013-.04.012-.061l-.134-.4c0-.041.017-.061.049-.061h2.431c.022.01.044.018.067.024.033.012.057.039.067.073l5.142,14.43c.102.195.194.395.274.6.064.169.144.331.237.486.224.357.562.627.96.766.314.171.664.267,1.021.28.065,0,.1.036.1.109v.28c.008.047-.023.092-.069.1-.01.002-.021.002-.031,0h-7.435c-.047.008-.091-.023-.1-.069-.002-.01-.002-.021,0-.031v-.292c0-.067.15-.107.45-.122s.547-.031.742-.048c1.127-.121,1.69-.502,1.69-1.143-.001-.057-.009-.114-.024-.17l-1.836-5.179c-.009-.016-.025-.052-.049-.109-.053-.24-.265-.412-.511-.413h-4.312c-.253.007-.478.164-.571.4-.015.032-.027.066-.036.1l-1.823,5.337v.109c.011.232.133.444.328.571.582.408,1.284.609,1.994.572h.316c.047-.008.091.023.1.069.002.01.002.021,0,.031,0,0-.004.285-.004.285ZM165.741,55.81c.146,0,.219-.061.219-.182-.002-.075-.018-.15-.048-.219l-1.812-4.984c-.081-.219-.141-.328-.182-.328s-.105.113-.194.34l-1.7,4.972c-.033.083-.05.172-.049.261,0,.095.061.14.182.14h3.584Z" fill="#fff" stroke-width="0"/>
              <path id="Path_894" data-name="Path 894" d="M51.842,86.309c-.034.005-.065-.019-.07-.053v-.228c-.005-.034.019-.065.053-.07h.228c.46.011.915-.098,1.32-.317.162-.098.293-.24.378-.409.101-.191.153-.404.15-.62v-9.313c0-.363-.233-.641-.7-.835-.331-.141-.688-.213-1.048-.211h-.194c-.034.005-.065-.019-.07-.053v-.228c-.005-.034.019-.065.053-.07h5.975c.034-.005.066.018.071.052v.229c.005.034-.019.065-.053.07h-.396c-.544-.01-1.086.077-1.6.256-.119.032-.215.118-.259.233-.047.182-.067.37-.058.558v9.761c.017.11.074.21.159.282.084.084.198.131.317.131h3.476c.627-.058,1.194-.397,1.54-.923.135-.164.3-.383.5-.655.11-.165.234-.319.37-.463.188-.141.282-.137.282.009,0,.037-.009.073-.026.106l-1.329,2.605c-.053.106-.114.159-.185.158,0,0-8.884-.002-8.884-.002Z" fill="#fff" stroke-width="0"/>
              <path id="Path_895" data-name="Path 895" d="M67.727,86.239c.005.034-.019.065-.053.07h-4.518c-.034.005-.066-.018-.071-.052v-.229c0-.047.038-.07.115-.07.771-.009,1.44-.537,1.628-1.285l3.591-10.395c.006-.013.01-.028.009-.043l-.1-.29c0-.03.011-.045.035-.045h1.76c.015.007.031.013.048.018.024.008.042.028.049.053l3.723,10.446c.074.141.141.285.2.432.046.122.104.24.171.352.163.259.41.455.7.554.228.123.48.191.739.2.047,0,.071.027.071.078v.2c.005.034-.019.065-.053.07h-5.404c-.034.005-.066-.018-.071-.052v-.229c0-.047.108-.076.326-.088s.4-.023.537-.035c.816-.088,1.224-.364,1.223-.828,0-.042-.007-.083-.018-.123l-1.329-3.749c-.006-.012-.018-.038-.035-.079-.038-.174-.192-.299-.37-.3h-3.124c-.184.005-.347.12-.414.291-.011.022-.02.046-.026.07l-1.32,3.863v.08c.008.168.097.322.238.413.421.296.929.441,1.443.414h.229c.034-.005.066.018.071.052v.018s0,.218,0,.218ZM70.327,79.85c.106,0,.158-.045.158-.131-.002-.055-.013-.109-.035-.16l-1.311-3.607c-.059-.16-.1-.238-.132-.238s-.077.083-.141.246l-1.232,3.6c-.024.06-.036.125-.035.19,0,.067.044.1.132.1h2.596Z" fill="#fff" stroke-width="0"/>
              <path id="Path_896" data-name="Path 896" d="M80.395,74.252c-.704,0-1.056.27-1.056.81.002.108.021.215.057.317.039.116.073.233.1.352l3.37,8.114c.025.055.08.09.141.088.067-.002.127-.04.158-.1l1.945-4.576-1.716-4.146c-.105-.267-.545-.519-1.32-.757-.144-.052-.293-.087-.445-.106-.067,0-.1-.023-.1-.07v-.211c-.005-.034.019-.065.053-.07h8.078c.034-.005.065.019.07.053v.228c.005.034-.019.065-.053.07h-.343c-.555-.006-1.06.319-1.285.827-.1.188-.2.408-.308.661l-1.136,2.688,2.253,5.421c.024.056.08.091.141.088.067-.002.128-.04.159-.1l3.723-8.758c.064-.138.1-.288.105-.44,0-.259-.337-.388-1.012-.387h-.546c-.034.005-.065-.019-.07-.053v-.228c-.005-.034.019-.065.053-.07h3.933c.034-.005.066.018.071.052,0,.006,0,.012,0,.018v.211c.005.034-.019.065-.053.07h-.432c-.228-.014-.447.087-.585.268-.22.348-.407.717-.559,1.1l-4.524,10.623c-.036.107-.106.198-.2.26-.098.037-.203.054-.308.049h-.414c-.128.009-.245-.072-.282-.195l-2.376-5.755-2.4,5.641c-.036.107-.106.198-.2.26-.098.037-.203.054-.308.049h-.414c-.128.009-.243-.075-.273-.2l-4.665-11.23c-.094-.229-.384-.429-.871-.6-.289-.12-.591-.207-.9-.26-.115,0-.172-.023-.172-.07v-.211c-.005-.034.019-.065.053-.07h5.033c.034-.005.066.018.071.052v.229c.005.034-.019.065-.053.07h-.018s-.17-.006-.17-.006ZM86.995,74.665c0-.246-.252-.379-.757-.4-.511.029-.804.207-.88.536-.053.191-.046.394.022.581.039.116.073.233.1.352l.555,1.347.854-2c.062-.13.098-.27.106-.414" fill="#fff" stroke-width="0"/>
              <path id="Path_897" data-name="Path 897" d="M116.51,80.852c.064,0,.1.046.1.137.006.077-.033.15-.1.188-.16.065-.323.121-.489.168-.16.044-.315.106-.462.184-.316.164-.506.499-.484.854v2.861c0,.129-.309.302-.928.519s-1.122.376-1.51.475c-1.595.454-3.292.404-4.858-.141-1.585-.578-2.849-1.804-3.476-3.371-.331-.763-.504-1.585-.51-2.416-.015-.681.065-1.361.238-2.02.456-1.634,1.546-3.018,3.027-3.845.956-.573,2.049-.877,3.164-.88,1.204.019,2.397.245,3.524.669.126.051.255.092.387.123h.106l.352-.088h.22c.047-.008.091.022.1.069.002.01.002.021,0,.031v2.93c0,.111-.064.168-.194.168h-.035c-.112-.012-.187-.163-.229-.45l-.026-.133c-.403-1.699-1.971-2.862-3.714-2.754-1.414-.048-2.763.592-3.621,1.717-.908,1.165-1.385,2.608-1.351,4.084-.023,1.507.455,2.978,1.359,4.184.864,1.191,2.266,1.872,3.736,1.817.691.024,1.38-.105,2.015-.378.187-.086.35-.215.475-.378v-2.413c.038-.45-.134-.893-.466-1.2-.516-.308-1.118-.442-1.716-.383-.067,0-.1-.054-.1-.163s.033-.163.1-.163c0,0,5.366-.002,5.366-.002Z" fill="#fff" stroke-width="0"/>
              <path id="Path_898" data-name="Path 898" d="M118.224,86.312c-.047,0-.07-.058-.07-.176v-.106c-.005-.034.019-.065.053-.07h.017c.056-.002.112-.008.167-.018l.238-.035c.082-.012.158-.025.229-.039l.15-.031c.524-.047.919-.496.9-1.021v-9.294c.033-.448-.207-.871-.607-1.074-.238-.128-.504-.195-.774-.194h-.334c-.034.005-.066-.018-.071-.052,0-.006,0-.012,0-.018v-.211c0-.047.035-.07.106-.07l4.832-.131h.889c.979.045,1.907.447,2.609,1.131.69.656,1.072,1.573,1.052,2.525.029.946-.447,1.836-1.25,2.337-.266.175-.546.328-.836.458l2.667,4.357c.426.729,1.082,1.296,1.866,1.61.06.009.104.062.1.123,0,.146-.097.219-.29.219-1.232.043-2.408-.517-3.151-1.5-.17-.223-.34-.473-.511-.749l-2.279-3.572-2.095-.1h-.07c-.088,0-.132.041-.132.123v4.058c-.021.269.079.533.273.72.277.195.604.308.942.326.117.018.261.042.431.075.115.025.231.042.348.049.062,0,.092.023.092.07v.211c.005.034-.019.065-.053.07h-5.438ZM122.334,74.233l-.224.008c-.08,0-.181.007-.3.01s-.185.051-.185.145v5.333l.018.264c.018.123.073.188.167.194l.9.053c1.649,0,2.643-.587,2.984-1.76.117-.412.173-.839.167-1.267.042-.822-.274-1.622-.867-2.192-.606-.544-1.399-.831-2.213-.8h-.229l-.211.01" fill="#fff" stroke-width="0"/>
              <path id="Path_899" data-name="Path 899" d="M140.59,86.282c-.522.163-1.064.252-1.611.265-.938.004-1.87-.154-2.755-.467-1.114-.379-2.11-1.043-2.887-1.927-1.667-2.14-1.853-5.084-.467-7.416.626-.997,1.509-1.807,2.557-2.345,1.081-.574,2.287-.87,3.511-.863,1.176-.019,2.337.269,3.367.837.981.547,1.803,1.34,2.385,2.3.592.949.904,2.046.9,3.164-.001,1.14-.308,2.258-.889,3.239-.59,1.021-1.429,1.876-2.438,2.486-.522.316-1.085.562-1.672.73M133.797,79.747c.006,1.002.227,1.991.647,2.9.406.928,1.044,1.735,1.852,2.345.803.604,1.785.923,2.79.906,1.385.053,2.703-.597,3.504-1.729.796-1.169,1.194-2.564,1.135-3.978.035-1.509-.456-2.984-1.39-4.17-.45-.569-1.016-1.035-1.66-1.369-.607-.332-1.287-.509-1.979-.516-.554-.015-1.107.059-1.637.221-.414.14-.805.342-1.158.6-.348.257-.657.564-.916.911-.265.354-.486.738-.66,1.144-.362.864-.544,1.792-.537,2.728" fill="#fff" stroke-width="0"/>
              <path id="Path_900" data-name="Path 900" d="M152.327,74.252c-.986,0-1.479.393-1.478,1.179v6.3c-.038,1.07.382,2.105,1.153,2.848.799.746,1.864,1.142,2.957,1.1,1.113.046,2.205-.312,3.075-1.007.812-.695,1.255-1.728,1.2-2.795v-5.6c.024-.393-.027-.788-.15-1.162-.326-.624-1.011-.973-1.707-.871-.034.005-.065-.019-.07-.053v-.228c-.005-.034.019-.065.053-.07h4.347c.034-.005.066.018.071.052,0,.006.001.012,0,.018v.211c0,.047-.064.07-.194.07-.628-.093-1.228.291-1.408.9-.028.091-.043.186-.044.282v5.765c0,2.575-.986,4.233-2.957,4.972-.631.246-1.302.375-1.98.379-2.353,0-4.086-.617-5.2-1.85-.578-.643-.887-1.484-.862-2.349v-7.039c0-.498-.302-.827-.906-.986-.146-.042-.297-.066-.449-.07-.123,0-.185-.023-.185-.07v-.211c0-.047.02-.07.062-.07h4.77c.034-.005.066.018.071.052,0,.006.001.012,0,.018v.211c0,.047-.056.07-.167.07" fill="#fff" stroke-width="0"/>
              <path id="Path_901" data-name="Path 901" d="M163.591,86.312c-.047,0-.071-.058-.071-.176v-.106c0-.047.029-.07.088-.07.089-.006.176-.024.26-.053.114-.035.2-.058.259-.07.524-.047.919-.496.9-1.021v-9.294c0-.54-.1-.885-.3-1.035-.331-.18-.708-.258-1.083-.223h-.4c-.123,0-.185-.07-.185-.211-.008-.072.042-.138.114-.15h.062l4.937-.131h.889c.984.042,1.919.446,2.623,1.135.678.64,1.058,1.533,1.048,2.465-.047,1.423-.817,2.724-2.042,3.45-.336.202-.717.316-1.109.33l-2.64-.106h-.07c-.088,0-.132.041-.132.123v3.618c-.022.265.075.526.264.712.337.21.721.334,1.118.36l.37.058c.113.02.228.033.343.039.059,0,.088.023.088.07v.211c.005.034-.019.065-.053.07h-.017l-5.261.005h0ZM167.454,74.212l-.224.008c-.08,0-.181.007-.3.01s-.185.051-.185.145v5.676l.018.265c.018.122.073.187.167.192l.9.054c.864.034,1.699-.314,2.284-.951.586-.655.897-1.511.867-2.39.051-.83-.255-1.642-.84-2.232-.614-.548-1.418-.832-2.24-.792h-.229l-.211.01" fill="#fff" stroke-width="0"/>
            </g>
            <g id="Group_594" data-name="Group 594">
              <path id="Path_902" data-name="Path 902" d="M212.116,67.041l-1.282.059c-.083-.006-.157.054-.166.137l-.959,4.513c-.029.131-.042.266-.039.4-.002.156.062.305.176.411.127.119.282.205.45.249.391.094.792.133,1.194.117.039,0,.059.026.059.078l-.049.236c-.02.052-.049.078-.088.078h-5.244c-.045,0-.068-.026-.068-.078l.049-.236c.026-.052.106-.078.24-.078.164-.003.328-.017.49-.044.183-.026.358-.091.513-.191.369-.282.606-.703.656-1.165.019-.1.039-.2.058-.294l.069-.343c.033-.137.072-.31.118-.519s.1-.476.171-.8.153-.725.254-1.2l.367-1.723c.143-.675.31-1.463.5-2.364.477-2.212.715-3.379.715-3.5.029-.275-.138-.533-.4-.621-.401-.112-.817-.16-1.233-.142h-.509c-.039,0-.059-.029-.059-.088l.059-.254c.032-.1.075-.147.127-.147h4.865c1.309-.095,2.618.179,3.778.793.871.599,1.356,1.618,1.272,2.672-.013.766-.359,1.488-.949,1.977-.814.657-1.701,1.218-2.643,1.673-.182.092-.274.183-.274.275.007.114.044.223.108.318.071.121.176.29.313.508.137.218.297.466.48.744.183.277.386.574.611.891.225.317.463.632.715.945.251.313.51.613.778.9.25.272.517.527.8.764.421.406.965.661,1.547.724h.254c.261,0,.411.029.45.088.036.048.056.106.059.166v.157c0,.133-.1.2-.3.2h-.734c-1.859-.054-3.573-1.021-4.581-2.584-.385-.515-.707-.978-.964-1.39s-.469-.738-.636-.979c-.166-.241-.311-.462-.435-.661-.124-.199-.199-.325-.225-.377-.026-.05-.06-.096-.1-.136-.089-.1-.218-.155-.352-.148M213.522,59.996l-.489-.01c-.257-.036-.519.025-.734.171-.091.09-.156.204-.186.328l-1.194,5.628c-.027.107-.04.217-.04.328,0,.114.167.171.5.171.376-.007.751-.052,1.119-.134.404-.083.799-.206,1.179-.367.371-.158.723-.355,1.052-.588.314-.22.597-.482.841-.778.492-.557.767-1.273.774-2.016.04-.751-.241-1.485-.774-2.016-.562-.505-1.301-.765-2.055-.724" fill="#fff" stroke-width="0"/>
              <path id="Path_903" data-name="Path 903" d="M225.682,72.788c.817-.067,1.601-.351,2.271-.822l.137.245c-.698.535-1.487.94-2.329,1.194-.376.117-.767.176-1.16.176-.35.011-.696-.075-1-.249-.275-.167-.506-.397-.675-.671-.351-.633-.521-1.351-.49-2.075.135-1.461.678-2.855,1.566-4.023.563-.79,1.336-1.407,2.231-1.781.378-.168.786-.261,1.2-.274.279-.009.557.022.827.093.189.059.366.153.519.279.319.238.505.615.5,1.013.01.368-.08.731-.26,1.052-.175.296-.406.555-.68.763-.296.224-.618.412-.959.558-.356.156-.721.293-1.091.411-.369.118-.731.224-1.086.318s-.667.19-.935.289c-.205.473-.312.984-.313,1.5-.089.745.278,1.47.93,1.84.25.117.524.174.8.167M224.403,68.7c0,.111.088.167.264.167.745-.184,1.457-.479,2.114-.876.376-.25.703-.567.964-.935.225-.349.34-.759.328-1.174.051-.362-.118-.721-.431-.911-.147-.061-.306-.088-.465-.078-.239.007-.473.073-.681.191-.246.131-.468.303-.656.509-.202.22-.379.462-.529.72-.155.265-.292.539-.411.822-.208.508-.375,1.031-.5,1.566" fill="#fff" stroke-width="0"/>
              <path id="Path_904" data-name="Path 904" d="M235.62,71.833c.026-.121.052-.235.079-.343.026-.108.043-.217.049-.328.007-.111-.016-.167-.069-.167-.072,0-.232.109-.479.328l-.685.6c-.209.183-.429.372-.661.568s-.459.372-.681.529c-.311.283-.693.476-1.106.558-.228.004-.443-.107-.573-.294-.154-.209-.268-.445-.338-.695-.128-.429-.195-.874-.2-1.321.033-1.444.582-2.829,1.546-3.905.954-1.155,2.211-2.021,3.631-2.5.699-.239,1.434-.362,2.173-.362.111,0,.167.091.167.274l-1.478,6.773c-.007.052-.013.1-.02.156-.012.086-.019.172-.019.259.001.086.028.17.078.24.033.066.098.11.171.117.088-.012.17-.051.235-.112.095-.075.191-.159.289-.25.144-.151.317-.271.509-.352.1,0,.157.059.157.176s-.352.457-1.057,1c-.384.368-.841.651-1.341.832-.2,0-.34-.133-.421-.4-.041-.158-.061-.321-.059-.484,0-.165.009-.33.029-.494.019-.15.042-.285.068-.406M236.896,65.776c0-.104-.124-.156-.372-.156-.295.007-.587.051-.871.132-.333.088-.655.215-.959.377-1.148.619-1.949,1.73-2.173,3.015-.118.485-.195.98-.23,1.478-.015.274-.015.548,0,.822.012.17.046.338.1.5.083.33.385.558.725.548.552-.301,1.063-.67,1.521-1.1l1.3-1.165.959-4.451h0Z" fill="#fff" stroke-width="0"/>
              <path id="Path_905" data-name="Path 905" d="M242.482,72.405c0,.143.082.215.245.215.261,0,.721-.346,1.38-1.038l.157-.156.186.186c-.302.436-.676.816-1.106,1.125-.431.43-.979.723-1.576.842-.388-.019-.702-.323-.734-.71-.003-.13.007-.259.029-.387l2.878-13.429c.023-.083.036-.168.039-.254,0-.163-.072-.245-.215-.245-.173.014-.342.064-.495.147l-.661.313-.127-.3c.95-.564,1.936-1.065,2.951-1.5.127,0,.19.077.19.23-.07.554-.173,1.102-.308,1.644-.205.943-.453,2.096-.744,3.46s-.545,2.552-.764,3.563-.403,1.869-.553,2.574c-.15.705-.274,1.289-.372,1.752-.098.467-.175.827-.23,1.082s-.094.445-.117.572c-.023.124-.041.215-.054.274v.04h0Z" fill="#fff" stroke-width="0"/>
              <path id="Path_906" data-name="Path 906" d="M266.255,60.846c0-.626-.555-.939-1.664-.94-.039,0-.059-.026-.059-.078l.049-.235c.008-.048.051-.082.1-.078h5.1c.039,0,.059.026.059.078l-.049.235c-.013.052-.09.078-.23.078-.168.003-.335.017-.5.044-.185.025-.362.09-.519.191-.374.279-.615.701-.666,1.165l-2.212,10.444c-.029.128-.042.26-.039.391,0,.155.063.304.176.411.126.122.281.209.45.254.391.094.792.133,1.194.117.039,0,.059.026.059.078l-.049.235c-.019.052-.049.078-.088.078h-5.256c-.046,0-.068-.026-.068-.078l.049-.235c.026-.052.106-.078.24-.078.164-.003.328-.017.49-.044.183-.026.358-.091.514-.191.382-.315.626-.766.68-1.258.133-.629.251-1.182.352-1.659.101-.477.186-.873.255-1.189.067-.317.119-.565.156-.744.037-.179.062-.318.074-.416.019-.081.032-.163.039-.245,0-.4-.17-.6-.509-.6h-6.489c-.326,0-.551.248-.675.744-.072.313-.193.875-.362,1.684s-.285,1.369-.346,1.678c-.067.307-.117.548-.152.724s-.059.309-.074.4c-.026.119-.039.24-.039.362.008.141.071.273.176.367.126.126.281.218.451.269.387.095.786.135,1.184.117.039,0,.058.026.058.078l-.049.235c-.02.052-.049.078-.088.078h-5.247c-.045,0-.069-.026-.069-.078l.049-.235c.026-.052.106-.078.24-.078.164-.003.327-.017.489-.044.183-.026.358-.091.514-.191.365-.285.602-.705.656-1.165l2.222-10.443c.023-.086.036-.175.039-.264,0-.607-.542-.91-1.625-.91-.047.008-.091-.023-.1-.069-.002-.01-.002-.021,0-.031l.049-.215c.008-.048.051-.082.1-.078h5.1c.039,0,.058.026.058.078l-.049.235c-.013.052-.09.078-.23.078-.168.003-.335.017-.5.044-.185.025-.362.09-.519.191-.378.31-.619.757-.67,1.243-.127.62-.242,1.162-.343,1.625-.101.463-.184.85-.249,1.16-.067.31-.117.551-.152.724-.036.173-.063.3-.083.387s-.033.14-.039.167c-.016.057-.026.116-.029.176,0,.143.1.215.3.215h6.969c.235,0,.426-.341.573-1.023s.266-1.238.357-1.669.166-.788.225-1.072c.059-.284.104-.504.137-.661.033-.157.059-.274.078-.352.014-.071.023-.143.029-.215" fill="#fff" stroke-width="0"/>
              <path id="Path_907" data-name="Path 907" d="M273.411,72.788c.817-.067,1.601-.351,2.271-.822l.137.245c-.698.535-1.488.94-2.33,1.194-.376.117-.767.176-1.16.176-.35.011-.696-.075-1-.249-.275-.167-.506-.397-.675-.671-.351-.633-.521-1.351-.49-2.075.135-1.461.678-2.855,1.566-4.023.563-.79,1.336-1.407,2.232-1.781.378-.168.786-.261,1.2-.274.279-.009.557.022.827.093.189.059.366.153.519.279.319.238.505.615.5,1.013.01.368-.079.731-.259,1.052-.175.296-.406.555-.68.763-.296.224-.618.412-.959.558-.357.156-.721.293-1.092.411-.369.118-.731.224-1.086.318s-.667.19-.935.289c-.205.473-.312.984-.313,1.5-.089.745.278,1.47.93,1.84.25.117.524.174.8.167M272.132,68.7c0,.111.088.167.264.167.745-.184,1.457-.479,2.114-.876.376-.25.703-.567.964-.935.225-.349.339-.759.328-1.174.051-.362-.118-.721-.431-.911-.147-.061-.306-.088-.465-.078-.239.007-.472.073-.68.191-.246.131-.468.303-.656.509-.202.22-.379.462-.529.72-.155.265-.292.539-.411.822-.208.508-.375,1.031-.5,1.566" fill="#fff" stroke-width="0"/>
              <path id="Path_908" data-name="Path 908" d="M280.427,72.405c0,.143.082.215.245.215.261,0,.721-.346,1.38-1.038l.157-.156.186.186c-.302.436-.676.816-1.106,1.125-.431.43-.979.723-1.576.842-.388-.019-.702-.323-.734-.71-.003-.13.007-.259.029-.387l2.878-13.429c.023-.083.036-.168.039-.254,0-.163-.072-.245-.215-.245-.173.014-.342.064-.495.147l-.66.313-.128-.3c.95-.564,1.936-1.065,2.951-1.5.127,0,.191.077.191.23-.071.554-.174,1.102-.309,1.644-.205.943-.453,2.096-.744,3.46s-.545,2.552-.764,3.563-.403,1.869-.553,2.574c-.15.705-.274,1.289-.372,1.752-.098.467-.175.827-.23,1.082-.055.255-.094.445-.117.572-.023.124-.041.215-.054.274v.04h0Z" fill="#fff" stroke-width="0"/>
              <path id="Path_909" data-name="Path 909" d="M290.857,72.601c-.356.307-.762.55-1.2.719-.443.173-.914.261-1.389.259-.492-.002-.976-.127-1.409-.362l-1.028,4.855c-.023.083-.036.168-.039.254-.016.281.171.534.445.6.416.113.846.163,1.277.147l-.069.313h-4.786l.069-.313c.522.052,1.036-.152,1.38-.548.293-.518.489-1.085.577-1.674l2.251-10.57v-.039c0-.183-.075-.274-.225-.274-.098,0-.261.116-.489.347l-.9.915-.235-.244c.455-.601.996-1.132,1.605-1.576.415-.432.939-.743,1.517-.9.091.004.179.033.255.083.087.048.14.141.137.24-.021.321-.073.638-.156.949l-.284,1.263c-.008.029-.011.058-.01.088,0,.111.036.166.108.166.101,0,.199-.04.274-.108.085-.071.21-.189.377-.352.167-.163.353-.344.558-.543.205-.2.422-.406.651-.617s.454-.406.675-.583c.303-.297.685-.5,1.1-.587.232-.003.451.106.588.294.16.21.281.447.357.7.147.486.22.992.215,1.5,0,.543-.047,1.085-.142,1.62-.091.523-.232,1.036-.421,1.532-.18.476-.412.93-.69,1.356-.263.404-.581.77-.945,1.086M291.13,70.013c.176-.459.313-.932.411-1.414.09-.4.141-.808.152-1.218,0-.32-.006-.568-.019-.744-.012-.17-.046-.338-.1-.5-.083-.33-.384-.558-.724-.548-.406.223-.775.508-1.091.847-.382.388-.708.724-.979,1.008-.271.284-.566.584-.886.9l-.7,3.328c-.027.109-.04.221-.039.333.002.129.02.258.054.382.036.137.098.267.181.382.185.262.487.415.807.411.309.006.613-.078.876-.24.282-.184.536-.408.754-.666.267-.31.505-.645.709-1,.234-.401.435-.82.6-1.253" fill="#fff" stroke-width="0"/>
              <path id="Path_910" data-name="Path 910" d="M303.641,65.261c0-.15-.121-.225-.362-.225h-.891l.088-.382c.907-.026,1.389-.166,1.448-.421.006-.045.023-.13.049-.254s.054-.258.083-.4.057-.282.083-.416.057-.287.093-.46.1-.453.2-.842c.107-.411.24-.815.4-1.209.172-.429.376-.845.611-1.243.241-.41.541-.783.891-1.106.781-.724,1.814-1.113,2.878-1.086.295-.023.589.057.832.225.307.241.46.453.46.636,0,.431-.17.646-.509.646-.268-.013-.525-.114-.729-.289-.251-.192-.449-.332-.592-.421-.17-.095-.363-.141-.558-.132-.215-.002-.429.034-.631.108-.182.066-.35.165-.494.294-.256.278-.456.604-.587.959-.279.802-.501,1.623-.666,2.457-.163.829-.258,1.305-.284,1.429s-.052.257-.078.4c-.071.385-.107.6-.108.646,0,.221.1.332.3.333h1.251l-.118.529h-1.4c-.102-.006-.195.062-.22.161-.039.117-.07.236-.093.357l-1.772,8.359c-.27,1.242-.779,2.419-1.5,3.465-.517.82-1.257,1.475-2.134,1.889-.372.185-.779.287-1.194.3-.262.012-.525-.017-.778-.088-.149-.053-.29-.129-.416-.225-.192-.121-.318-.323-.343-.548,0-.431.17-.646.509-.646.287.018.562.118.793.289.294.193.524.333.69.421.159.086.338.131.519.132.179,0,.354-.047.509-.137.163-.094.31-.212.435-.352.278-.306.498-.661.646-1.047.39-1.125.701-2.276.93-3.445l1.742-8.584c.007-.025.011-.052.01-.078" fill="#fff" stroke-width="0"/>
              <path id="Path_911" data-name="Path 911" d="M313.695,64.507c.385,0,.753.339,1.106,1.018.357.65.549,1.378.557,2.119.044,1.118-.271,2.221-.9,3.147-.279.42-.61.803-.984,1.141-.371.337-.778.63-1.214.876-.806.49-1.729.757-2.672.773-.353,0-.712-.342-1.077-1.027-.337-.596-.525-1.264-.548-1.948-.004-.571.077-1.14.24-1.688.154-.512.375-1.003.656-1.458.275-.443.602-.852.974-1.218.36-.356.761-.668,1.194-.93.801-.506,1.725-.783,2.672-.8M309.799,68.138c-.121.391-.213.79-.274,1.194-.057.345-.088.694-.093,1.043,0,.281.025.561.078.837.052.269.137.531.255.778.169.5.627.845,1.154.871.888,0,1.621-.567,2.2-1.7.519-1.028.784-2.166.773-3.318.021-.722-.165-1.436-.538-2.055-.162-.321-.483-.53-.842-.548-.317-.002-.63.079-.906.235-.286.164-.542.378-.754.631-.238.284-.441.594-.607.925-.181.357-.332.729-.45,1.111" fill="#fff" stroke-width="0"/>
              <path id="Path_912" data-name="Path 912" d="M322.96,66.083l-.479-.078c-.476.037-.918.258-1.233.617-.525.492-.898,1.124-1.077,1.821-.067.287-.133.577-.2.871l-.842,3.9c-.078.033-.168.072-.269.118s-.207.088-.318.127c-.191.08-.393.13-.6.147-.17,0-.255-.108-.255-.323.046-.379.115-.754.206-1.125.137-.639.287-1.342.45-2.109s.298-1.398.406-1.894c.107-.496.189-.879.244-1.15s.099-.468.132-.592c.021-.09.038-.182.049-.274,0-.111-.039-.166-.117-.166-.152.011-.293.083-.391.2l-.822.8c-.022.027-.054.044-.088.049-.143,0-.215-.069-.215-.206s.15-.341.45-.612c.3-.277.543-.498.729-.661s.326-.287.421-.372.186-.163.274-.235.181-.14.279-.206c.17-.124.368-.201.577-.225.215.033.323.261.323.685l-.117,1.321c0,.137.046.205.137.205.052,0,.178-.135.377-.406.199-.271.356-.473.47-.607s.233-.273.357-.416c.12-.14.254-.268.4-.382.27-.242.616-.384.979-.4.189,0,.313.153.372.46.019.08.029.162.03.244,0,.575-.215.868-.646.881" fill="#fff" stroke-width="0"/>
              <path id="Path_913" data-name="Path 913" d="M336.565,67.041l-1.282.059c-.083-.006-.157.054-.166.137l-.959,4.513c-.029.131-.042.266-.039.4-.002.156.062.305.176.411.127.119.282.205.45.249.391.094.792.133,1.194.117.039,0,.059.026.059.078l-.049.236c-.02.052-.049.078-.088.078h-5.252c-.045,0-.068-.026-.068-.078l.049-.236c.026-.052.106-.078.24-.078.164-.003.328-.017.49-.044.183-.026.358-.091.514-.191.369-.282.606-.703.656-1.165.019-.1.039-.2.058-.294l.068-.343c.033-.137.072-.31.118-.519s.1-.476.171-.8.153-.725.254-1.2l.367-1.723c.143-.675.31-1.463.5-2.364.477-2.212.715-3.379.715-3.5.029-.275-.138-.533-.4-.621-.401-.112-.817-.16-1.233-.142h-.509c-.039,0-.059-.029-.059-.088l.059-.254c.032-.1.075-.147.127-.147h4.865c1.309-.095,2.618.179,3.778.793.871.599,1.356,1.618,1.272,2.672-.013.766-.36,1.488-.949,1.977-.814.656-1.701,1.218-2.643,1.673-.182.092-.274.183-.274.275.007.114.044.223.108.318.071.121.176.29.313.508s.3.467.48.744.386.574.611.891.463.631.714.945.511.613.778.9c.25.272.517.527.8.764.421.406.965.661,1.546.724h.254c.261,0,.411.029.45.088.036.048.056.106.059.166v.157c0,.133-.1.2-.3.2h-.734c-1.859-.055-3.572-1.021-4.58-2.584-.385-.515-.707-.978-.964-1.39s-.469-.738-.636-.979c-.166-.241-.311-.462-.435-.661s-.199-.325-.225-.377c-.026-.05-.06-.096-.1-.136-.089-.1-.218-.155-.352-.148M337.962,59.996l-.489-.01c-.257-.036-.519.025-.734.171-.091.09-.156.203-.186.328l-1.194,5.628c-.027.107-.04.217-.04.328,0,.114.167.171.5.171.377-.005.753-.047,1.121-.127.404-.083.799-.206,1.179-.367.371-.158.724-.355,1.052-.588.314-.22.598-.482.842-.778.492-.557.766-1.273.773-2.016.041-.751-.24-1.484-.773-2.016-.562-.505-1.301-.765-2.055-.724" fill="#fff" stroke-width="0"/>
              <path id="Path_914" data-name="Path 914" d="M350.131,72.788c.816-.067,1.6-.351,2.27-.822l.137.245c-.698.535-1.487.94-2.329,1.194-.376.117-.767.176-1.16.176-.35.011-.696-.075-1-.249-.275-.167-.506-.397-.675-.671-.351-.633-.521-1.351-.49-2.075.135-1.461.678-2.855,1.566-4.023.563-.79,1.336-1.407,2.231-1.781.378-.168.786-.261,1.2-.274.279-.009.557.022.827.093.189.059.366.153.519.279.319.239.504.615.5,1.013.01.368-.08.731-.26,1.052-.175.296-.406.555-.68.763-.296.224-.618.411-.959.558-.357.156-.721.293-1.092.411-.369.118-.731.224-1.086.318s-.667.19-.935.289c-.206.473-.312.984-.313,1.5-.089.745.278,1.47.93,1.84.25.117.524.174.8.167M348.849,68.7c0,.111.088.167.264.167.745-.184,1.458-.479,2.115-.876.376-.25.703-.567.964-.935.225-.35.339-.759.327-1.174.051-.362-.118-.721-.431-.911-.147-.061-.305-.088-.464-.078-.239.007-.473.073-.681.191-.246.131-.467.303-.655.509-.202.22-.379.462-.529.72-.155.264-.293.539-.411.822-.208.508-.376,1.031-.5,1.566" fill="#fff" stroke-width="0"/>
              <path id="Path_915" data-name="Path 915" d="M360.061,71.833c.026-.121.052-.235.078-.343s.043-.217.05-.328c.006-.111-.017-.167-.069-.167-.071,0-.231.109-.479.328l-.685.6c-.209.183-.43.372-.661.568-.232.2-.458.372-.68.529-.311.283-.693.476-1.106.558-.228.004-.443-.107-.573-.294-.154-.209-.268-.445-.338-.695-.128-.429-.195-.874-.2-1.321.034-1.444.582-2.829,1.547-3.905.954-1.155,2.211-2.021,3.631-2.5.699-.239,1.433-.362,2.172-.362.111,0,.166.091.166.274l-1.477,6.773c-.007.052-.013.1-.02.156-.013.086-.019.172-.019.259.001.086.028.17.078.24.033.066.098.11.171.117.088-.012.17-.051.235-.112.095-.075.191-.159.288-.25.274-.235.443-.352.509-.352.1,0,.157.059.157.176s-.352.457-1.057,1c-.384.368-.841.651-1.341.832-.2,0-.343-.134-.421-.4-.041-.158-.061-.321-.059-.484,0-.165.009-.33.029-.494.02-.15.043-.286.069-.406M361.338,65.776c0-.1-.125-.156-.372-.156-.295.007-.588.051-.872.132-.333.088-.654.215-.958.377-1.148.619-1.949,1.73-2.173,3.015-.118.485-.195.98-.23,1.478-.014.274-.014.548,0,.822.013.17.046.338.1.5.083.33.385.558.725.548.552-.301,1.063-.67,1.522-1.1l1.3-1.165.958-4.451h0Z" fill="#fff" stroke-width="0"/>
              <path id="Path_916" data-name="Path 916" d="M366.932,72.405c0,.143.082.215.245.215.261,0,.721-.346,1.38-1.038l.157-.156.186.186c-.302.436-.676.816-1.106,1.125-.431.43-.979.723-1.576.842-.388-.019-.702-.323-.734-.71-.003-.13.007-.259.029-.387l2.878-13.429c.023-.083.036-.168.039-.254,0-.163-.072-.245-.215-.245-.173.014-.342.064-.494.147l-.661.313-.127-.3c.95-.564,1.936-1.065,2.951-1.5.127,0,.191.077.191.23-.071.554-.174,1.102-.309,1.644-.205.943-.453,2.096-.744,3.46s-.545,2.552-.764,3.563c-.218,1.011-.402,1.869-.553,2.574-.151.705-.275,1.289-.372,1.752-.097.467-.174.827-.23,1.082s-.095.445-.118.572c-.023.124-.04.215-.053.274v.04h0Z" fill="#fff" stroke-width="0"/>
              <path id="Path_917" data-name="Path 917" d="M382.464,67.747c0-.2.108-.3.323-.3,1.245.075,2.472-.332,3.426-1.136.892-.881,1.36-2.105,1.282-3.357,0-1.983-1.152-2.974-3.455-2.975-.257-.035-.517.024-.734.166-.093.09-.158.206-.186.333l-2.4,11.275c-.021.128-.031.257-.029.387.002.152.066.296.176.4.125.125.28.218.45.269.387.095.786.135,1.184.117.039,0,.059.026.059.078l-.049.236c-.019.052-.049.078-.088.078h-5.246c-.046,0-.069-.026-.069-.078l.049-.236c.026-.052.106-.078.24-.078.164-.003.328-.018.49-.045.183-.026.358-.09.514-.19.369-.282.606-.703.656-1.165.019-.104.039-.202.059-.294.02-.092.043-.2.068-.333s.06-.3.1-.5.1-.464.166-.783.153-.715.255-1.184.222-1.039.362-1.708.308-1.453.5-2.354c.477-2.231.715-3.431.715-3.6.007-.148-.034-.293-.117-.416-.08-.109-.193-.19-.323-.23-.348-.091-.708-.127-1.067-.108h-.617c-.046,0-.068-.026-.068-.078l.078-.323c0-.066.029-.1.088-.1l2.995.01h2.011c.462-.007.923.023,1.38.088.363.059.72.149,1.067.269.345.119.676.275.988.465.304.184.579.412.818.675.494.497.772,1.169.773,1.87.015.598-.073,1.194-.26,1.762-.163.458-.404.883-.714,1.257-.306.364-.667.676-1.072.925-.422.259-.872.469-1.341.626-1.007.314-2.058.466-3.113.45-.221,0-.332-.056-.333-.167" fill="#fff" stroke-width="0"/>
              <path id="Path_918" data-name="Path 918" d="M392.588,72.788c.817-.067,1.601-.351,2.271-.822l.137.245c-.698.535-1.487.94-2.329,1.194-.376.117-.767.176-1.16.176-.35.011-.696-.075-1-.249-.275-.167-.506-.397-.675-.671-.351-.633-.521-1.351-.49-2.075.135-1.461.678-2.855,1.566-4.023.563-.79,1.336-1.407,2.231-1.781.379-.168.786-.261,1.2-.274.279-.009.557.022.827.093.189.059.366.153.519.279.319.238.505.615.5,1.013.01.368-.08.731-.26,1.052-.175.296-.406.555-.68.763-.296.224-.618.412-.959.558-.356.156-.72.293-1.091.411-.369.118-.731.224-1.087.318-.356.094-.668.19-.935.289-.205.474-.312.984-.313,1.5-.089.745.278,1.47.93,1.84.25.117.524.174.8.167M391.308,68.7c0,.111.088.167.264.167.745-.184,1.457-.479,2.114-.876.376-.25.703-.567.964-.935.225-.349.339-.759.328-1.174.051-.363-.118-.721-.431-.911-.147-.061-.306-.088-.465-.078-.239.007-.472.073-.68.191-.246.131-.468.303-.656.509-.202.22-.379.462-.529.72-.155.265-.292.539-.411.822-.208.508-.376,1.031-.5,1.566" fill="#fff" stroke-width="0"/>
              <path id="Path_919" data-name="Path 919" d="M404.135,64.507c.385,0,.753.339,1.106,1.018.358.65.549,1.377.558,2.119.042,1.119-.275,2.222-.905,3.147-.279.42-.61.803-.984,1.141-.371.337-.778.63-1.214.876-.806.49-1.729.757-2.672.773-.353,0-.712-.342-1.077-1.027-.337-.596-.525-1.264-.548-1.948-.004-.571.077-1.14.24-1.688.154-.512.375-1.003.656-1.458.275-.444.602-.852.974-1.218.36-.356.761-.668,1.195-.93.801-.507,1.725-.783,2.672-.8M400.236,68.138c-.121.391-.213.79-.274,1.194-.057.345-.088.694-.093,1.043,0,.281.026.561.078.837.052.269.138.53.255.778.17.5.628.845,1.155.871.887,0,1.621-.567,2.2-1.7.519-1.028.784-2.166.773-3.318.021-.723-.166-1.436-.539-2.055-.162-.321-.483-.53-.842-.548-.317-.002-.63.079-.906.235-.286.165-.542.378-.754.631-.238.284-.441.594-.606.925-.181.357-.332.729-.45,1.111" fill="#fff" stroke-width="0"/>
              <path id="Path_920" data-name="Path 920" d="M413.88,72.601c-.356.307-.762.55-1.2.719-.443.173-.915.261-1.39.259-.492-.002-.976-.127-1.409-.362l-1.028,4.855c-.023.083-.037.168-.04.254-.016.282.172.534.446.6.416.113.846.163,1.277.147l-.068.313h-4.786l.069-.313c.522.052,1.036-.152,1.38-.548.293-.518.489-1.085.577-1.674l2.252-10.57v-.039c0-.183-.075-.274-.225-.274-.098,0-.261.116-.49.347l-.9.915-.235-.244c.455-.601.996-1.132,1.605-1.576.415-.432.939-.743,1.517-.9.091.004.179.033.255.083.087.048.14.141.137.24-.021.321-.074.639-.157.949l-.284,1.263c-.008.029-.011.058-.01.088,0,.111.036.166.108.166.101,0,.199-.04.274-.108.085-.071.21-.189.377-.352.167-.163.353-.344.558-.543.205-.2.422-.406.65-.617s.453-.406.675-.583c.303-.297.685-.5,1.1-.587.232-.003.451.106.588.294.161.21.281.447.357.7.147.486.22.992.215,1.5,0,.543-.047,1.085-.142,1.62-.091.523-.232,1.036-.421,1.532-.18.476-.412.93-.69,1.356-.263.404-.581.77-.945,1.086M414.151,70.013c.175-.459.313-.932.411-1.414.09-.4.14-.808.151-1.218,0-.32-.006-.568-.019-.744-.012-.17-.046-.338-.1-.5-.083-.33-.384-.558-.724-.548-.406.223-.775.509-1.091.847-.382.388-.708.724-.979,1.008s-.566.584-.886.9l-.7,3.328c-.027.109-.04.221-.039.333.001.129.02.258.054.382.036.137.097.267.181.382.185.261.487.415.807.411.309.006.613-.078.876-.24.282-.184.536-.408.754-.666.267-.31.505-.645.709-1,.234-.401.435-.82.6-1.253" fill="#fff" stroke-width="0"/>
              <path id="Path_921" data-name="Path 921" d="M419.949,72.405c0,.143.082.215.245.215.261,0,.721-.346,1.38-1.038l.157-.156.186.186c-.302.435-.676.816-1.106,1.125-.431.43-.979.723-1.576.842-.388-.019-.702-.323-.734-.71-.003-.13.007-.259.029-.387l2.878-13.429c.023-.083.036-.168.039-.254,0-.163-.072-.245-.215-.245-.173.014-.341.064-.494.147l-.661.313-.127-.3c.95-.564,1.936-1.065,2.951-1.5.127,0,.191.077.191.23-.07.554-.173,1.102-.308,1.644-.205.943-.453,2.096-.743,3.46s-.545,2.552-.764,3.563c-.218,1.011-.402,1.869-.553,2.574-.151.705-.275,1.289-.372,1.752-.098.467-.175.827-.23,1.082-.055.255-.095.445-.118.572-.022.124-.041.215-.054.274v.04h0Z" fill="#fff" stroke-width="0"/>
              <path id="Path_922" data-name="Path 922" d="M427.729,72.788c.817-.067,1.601-.351,2.271-.822l.137.245c-.698.535-1.487.94-2.329,1.194-.376.117-.767.176-1.16.176-.35.011-.696-.075-1-.249-.275-.167-.507-.397-.676-.671-.351-.633-.521-1.351-.49-2.075.135-1.461.678-2.855,1.566-4.023.563-.79,1.336-1.407,2.231-1.781.379-.168.786-.261,1.2-.274.279-.009.557.022.827.093.189.059.366.153.519.279.319.238.505.615.5,1.013.01.368-.08.731-.26,1.052-.175.296-.406.555-.68.763-.296.224-.618.412-.959.558-.356.156-.72.293-1.091.411-.369.118-.731.224-1.086.318s-.667.19-.935.289c-.205.474-.312.984-.313,1.5-.089.745.278,1.47.93,1.84.25.117.524.174.8.167M426.449,68.7c0,.111.088.167.264.167.745-.184,1.458-.479,2.114-.876.376-.25.703-.567.964-.935.225-.349.34-.759.328-1.174.051-.363-.118-.721-.431-.911-.147-.061-.306-.088-.465-.078-.239.007-.472.073-.68.191-.246.131-.468.303-.656.509-.202.22-.379.462-.529.72-.155.265-.292.539-.411.822-.208.508-.375,1.032-.5,1.566" fill="#fff" stroke-width="0"/>
            </g>
          </g>
        </g>
      </g>
    </g>
  </g>
</svg>