<svg xmlns="http://www.w3.org/2000/svg" viewBox="0 0 8236 1276">
  <!-- "Ego Web Designs" — Space Grotesk Bold (700) — all text as paths, no <text> elements -->
  <g transform="translate(0, 984) scale(1, -1)" fill="currentColor">
    <!-- E -->
    <path d="M66 0V700H516V580H198V413H488V293H198V120H522V0Z" transform="translate(0, 0)"/>
    <!-- g -->
    <path d="M46 246V262Q46 340 77.0 395.5Q108 451 159.5 480.5Q211 510 272 510Q340 510 375.0 486.0Q410 462 426 436H444V496H568V-88Q568 -139 538.0 -169.5Q508 -200 458 -200H126V-90H414Q442 -90 442 -60V69H424Q414 53 396.0 36.5Q378 20 348.0 9.0Q318 -2 272 -2Q211 -2 159.5 27.5Q108 57 77.0 112.5Q46 168 46 246ZM308 108Q366 108 405.0 145.0Q444 182 444 249V259Q444 327 405.5 363.5Q367 400 308 400Q250 400 211.0 363.5Q172 327 172 259V249Q172 182 211.0 145.0Q250 108 308 108Z" transform="translate(554, 0)"/>
    <!-- o -->
    <path d="M306 -14Q232 -14 173.0 16.0Q114 46 80.0 103.0Q46 160 46 240V256Q46 336 80.0 393.0Q114 450 173.0 480.0Q232 510 306 510Q380 510 439.0 480.0Q498 450 532.0 393.0Q566 336 566 256V240Q566 160 532.0 103.0Q498 46 439.0 16.0Q380 -14 306 -14ZM306 98Q364 98 402.0 135.5Q440 173 440 243V253Q440 323 402.5 360.5Q365 398 306 398Q248 398 210.0 360.5Q172 323 172 253V243Q172 173 210.0 135.5Q248 98 306 98Z" transform="translate(1192, 0)"/>
    <!-- W -->
    <path d="M122 0 30 700H161L229 92H247L335 700H563L651 92H669L737 700H868L776 0H548L458 622H440L350 0Z" transform="translate(2058, 0)"/>
    <!-- e -->
    <path d="M296 -14Q222 -14 165.5 17.5Q109 49 77.5 106.5Q46 164 46 242V254Q46 332 77.0 389.5Q108 447 164.0 478.5Q220 510 294 510Q367 510 421.0 477.5Q475 445 505.0 387.5Q535 330 535 254V211H174Q176 160 212.0 128.0Q248 96 300 96Q353 96 378.0 119.0Q403 142 416 170L519 116Q505 90 478.5 59.5Q452 29 408.0 7.5Q364 -14 296 -14ZM175 305H407Q403 348 372.5 374.0Q342 400 293 400Q242 400 212.0 374.0Q182 348 175 305Z" transform="translate(2956, 0)"/>
    <!-- b -->
    <path d="M368 -14Q301 -14 265.0 9.0Q229 32 212 60H194V0H70V700H196V439H214Q225 457 243.5 473.0Q262 489 292.5 499.5Q323 510 368 510Q428 510 479.0 480.5Q530 451 561.0 394.0Q592 337 592 256V240Q592 159 561.0 102.0Q530 45 479.0 15.5Q428 -14 368 -14ZM330 96Q388 96 427.0 133.5Q466 171 466 243V253Q466 325 427.5 362.5Q389 400 330 400Q272 400 233.0 362.5Q194 325 194 253V243Q194 171 233.0 133.5Q272 96 330 96Z" transform="translate(3533, 0)"/>
    <!-- D -->
    <path d="M46 0V116H138V584H46V700H334Q475 700 548.5 628.5Q622 557 622 416V284Q622 143 548.5 71.5Q475 0 334 0ZM270 120H336Q416 120 453.0 162.0Q490 204 490 280V420Q490 497 453.0 538.5Q416 580 336 580H270Z" transform="translate(4425, 0)"/>
    <!-- e -->
    <path d="M296 -14Q222 -14 165.5 17.5Q109 49 77.5 106.5Q46 164 46 242V254Q46 332 77.0 389.5Q108 447 164.0 478.5Q220 510 294 510Q367 510 421.0 477.5Q475 445 505.0 387.5Q535 330 535 254V211H174Q176 160 212.0 128.0Q248 96 300 96Q353 96 378.0 119.0Q403 142 416 170L519 116Q505 90 478.5 59.5Q452 29 408.0 7.5Q364 -14 296 -14ZM175 305H407Q403 348 372.5 374.0Q342 400 293 400Q242 400 212.0 374.0Q182 348 175 305Z" transform="translate(5091, 0)"/>
    <!-- s -->
    <path d="M276 -14Q179 -14 117.0 28.0Q55 70 42 148L158 178Q165 143 181.5 123.0Q198 103 222.5 94.5Q247 86 276 86Q320 86 341.0 101.5Q362 117 362 140Q362 163 342.0 175.5Q322 188 278 196L250 201Q198 211 155.0 228.5Q112 246 86.0 277.0Q60 308 60 357Q60 431 114.0 470.5Q168 510 256 510Q339 510 394.0 473.0Q449 436 466 376L349 340Q341 378 316.5 394.0Q292 410 256 410Q220 410 201.0 397.5Q182 385 182 363Q182 339 202.0 327.5Q222 316 256 310L284 305Q340 295 385.5 278.5Q431 262 457.5 231.5Q484 201 484 149Q484 71 427.5 28.5Q371 -14 276 -14Z" transform="translate(5668, 0)"/>
    <!-- i -->
    <path d="M70 0V496H196V0ZM133 554Q99 554 75.5 576.0Q52 598 52 634Q52 670 75.5 692.0Q99 714 133 714Q168 714 191.0 692.0Q214 670 214 634Q214 598 191.0 576.0Q168 554 133 554Z" transform="translate(6192, 0)"/>
    <!-- g -->
    <path d="M46 246V262Q46 340 77.0 395.5Q108 451 159.5 480.5Q211 510 272 510Q340 510 375.0 486.0Q410 462 426 436H444V496H568V-88Q568 -139 538.0 -169.5Q508 -200 458 -200H126V-90H414Q442 -90 442 -60V69H424Q414 53 396.0 36.5Q378 20 348.0 9.0Q318 -2 272 -2Q211 -2 159.5 27.5Q108 57 77.0 112.5Q46 168 46 246ZM308 108Q366 108 405.0 145.0Q444 182 444 249V259Q444 327 405.5 363.5Q367 400 308 400Q250 400 211.0 363.5Q172 327 172 259V249Q172 182 211.0 145.0Q250 108 308 108Z" transform="translate(6458, 0)"/>
    <!-- n -->
    <path d="M70 0V496H194V431H212Q224 457 257.0 480.5Q290 504 357 504Q415 504 458.5 477.5Q502 451 526.0 404.5Q550 358 550 296V0H424V286Q424 342 396.5 370.0Q369 398 318 398Q260 398 228.0 359.5Q196 321 196 252V0Z" transform="translate(7096, 0)"/>
    <!-- s -->
    <path d="M276 -14Q179 -14 117.0 28.0Q55 70 42 148L158 178Q165 143 181.5 123.0Q198 103 222.5 94.5Q247 86 276 86Q320 86 341.0 101.5Q362 117 362 140Q362 163 342.0 175.5Q322 188 278 196L250 201Q198 211 155.0 228.5Q112 246 86.0 277.0Q60 308 60 357Q60 431 114.0 470.5Q168 510 256 510Q339 510 394.0 473.0Q449 436 466 376L349 340Q341 378 316.5 394.0Q292 410 256 410Q220 410 201.0 397.5Q182 385 182 363Q182 339 202.0 327.5Q222 316 256 310L284 305Q340 295 385.5 278.5Q431 262 457.5 231.5Q484 201 484 149Q484 71 427.5 28.5Q371 -14 276 -14Z" transform="translate(7712, 0)"/>
  </g>
</svg>