<svg xmlns:inkscape="http://www.inkscape.org/namespaces/inkscape" xmlns:sodipodi="http://sodipodi.sourceforge.net/DTD/sodipodi-0.dtd" xmlns="http://www.w3.org/2000/svg" xmlns:svg="http://www.w3.org/2000/svg" id="Layer_1" x="0px" y="0px" viewBox="0 0 486 315.95099" xml:space="preserve" sodipodi:docname="swirl-line-drawing-4px.svg" width="486" height="315.95099" inkscape:version="1.2.1 (9c6d41e410, 2022-07-14)"><defs id="defs14">																																		<clipPath clipPathUnits="userSpaceOnUse" id="clipPath1159"><rect style="display:block;fill:#ffd5d5;stroke:#000000;stroke-width:13.8814;stroke-dasharray:none" id="rect1161" width="678.11871" height="242.66893" x="-761.4024" y="5.315033"></rect></clipPath></defs><style type="text/css" id="style2">	.st0{fill:none;stroke:#FFFFFF;stroke-width:3;}</style><g id="g1165" transform="matrix(1.0002058,0,0,1,665.78724,-5.3152721)"><path id="Rectangle_00000009559197873042509850000010572901916321683330_-0" class="st0" d="m -599.25025,137.16499 h 299.8 c 12,0 21.7,-9.69999 21.7,-21.69999 v -8.2 c 0,-12 -9.7,-21.7 -21.7,-21.7 l -342.5,0.4 c -12,0 -21.7,-9.7 -21.7,-21.7 v -8.2 c 0,-12 9.7,-21.7 21.7,-21.7 l 138.7,-0.5 h 299.8 c 12,0 21.7,-9.7 21.7,-21.7 v -8.2 c 0,-12 -9.7,-21.7 -21.7,-21.7 h -299.8" style="fill:none;stroke:#ffffff;stroke-width:4;stroke-dasharray:none" clip-path="url(#clipPath1159)"></path><path id="Rectangle_00000034770901792943999100000010727628320255742352_-1" class="st0" d="m -300.14105,137.1665 h -299.8 c -12,0 -21.7,9.7 -21.7,21.7 v 8.2 c 0,12 9.7,21.7 21.7,21.7 l 272.5,-0.4 c 12,0 21.7,9.7 21.7,21.7 v 8.2 c 0,12 -9.7,21.7 -21.7,21.7 l -202.6,-0.4 c -12,0 -21.7,9.7 -21.7,21.7 v 8.2 c 0,12 9.7,21.7 21.7,21.7 l 156.6,0.2 c 12,0 21.7,9.7 21.7,21.7 v 8.2" style="fill:none;stroke:#ffffff;stroke-width:4;stroke-dasharray:none"></path></g></svg>