<?xml version="1.0" encoding="UTF-8"?>
<!DOCTYPE svg PUBLIC "-//W3C//DTD SVG 1.1//EN" "http://www.w3.org/Graphics/SVG/1.1/DTD/svg11.dtd">
<!-- Creator: CorelDRAW 2021 (64-Bit) -->
<svg xmlns="http://www.w3.org/2000/svg" xml:space="preserve" width="16.4934in" height="5in" version="1.1" style="shape-rendering:geometricPrecision; text-rendering:geometricPrecision; image-rendering:optimizeQuality; fill-rule:evenodd; clip-rule:evenodd"
viewBox="0 0 2310.57 700.45"
 xmlns:xlink="http://www.w3.org/1999/xlink"
 xmlns:xodm="http://www.corel.com/coreldraw/odm/2003">
 <defs>
  <style type="text/css">
   <![CDATA[
    .fil1 {fill:#FEFEFE;fill-rule:nonzero}
    .fil0 {fill:#FEFEFE;fill-rule:nonzero}
   ]]>
  </style>
 </defs>
 <g id="Layer_x0020_1">
  <metadata id="CorelCorpID_0Corel-Layer"/>
  <path class="fil0" d="M389.42 157c-30.93,-4.12 -46.43,44.53 -26.89,72.53 7.14,10.23 15,13.42 26.89,13.42 11.88,0 19.75,-3.18 26.89,-13.42 19.54,-28 4.04,-76.65 -26.89,-72.53zm-59.06 121.96c0,1.27 0.02,7.95 0.02,9.22 39.37,-0.03 78.72,-0.03 118.09,0 0,-1.27 0.02,-7.96 0.02,-9.22 -39.38,-0.03 -78.75,-0.03 -118.13,0zm21.16 20.17c0,1.27 0,7.96 0,9.22 25.27,0.03 50.55,0.03 75.81,0 0,-1.27 0,-7.95 0,-9.22 -25.27,-0.03 -50.54,-0.03 -75.81,0zm37.91 99.38c-35.81,0 -71.63,-0 -107.44,-0.02 -0.02,-93.45 -0.04,-186.9 -0.06,-280.36 37.55,0.03 46.79,-31.18 110.63,-31.18 51.96,0 69.4,31.21 104.37,31.18 -0.02,93.45 -0.04,186.91 -0.06,280.36 -35.81,0.02 -71.62,0.02 -107.44,0.02zm0 68.33c50.84,0 101.67,-0 152.51,-0.04 -0.03,-18.91 0,-37.84 -0.02,-56.77 -101.66,0 -203.33,0 -304.98,0 -0.02,18.93 0.02,37.86 -0.02,56.77 50.84,0.03 101.67,0.04 152.51,0.04zm0 163.16c22.1,-0.08 63.11,54.95 72.79,70.45 5.77,-6.14 11.61,-12.22 17.3,-18.43 -22.11,-30.71 -54.04,-40.72 -76.59,-60.55 17.96,-6.06 36.06,-11.74 54.08,-17.64 20.33,8.12 41.98,12.86 63.72,15.03 35.57,1.9 45.31,-0.51 77.09,-8.85 -20.01,-23.8 -80.12,-33.72 -109.68,-26.39 -15.15,3.36 -27.79,13.84 -43.36,15.78 -19.01,3.45 -37.95,8.27 -55.35,16.78 -17.41,-8.51 -36.34,-13.34 -55.35,-16.78 -15.57,-1.94 -28.21,-12.43 -43.36,-15.78 -29.56,-7.33 -89.67,2.59 -109.68,26.39 31.78,8.34 41.51,10.75 77.09,8.85 21.73,-2.16 43.39,-6.91 63.72,-15.03 18.02,5.9 36.12,11.58 54.08,17.64 -22.55,19.83 -54.48,29.84 -76.59,60.55 5.69,6.2 11.54,12.29 17.3,18.43 9.68,-15.5 50.69,-70.53 72.79,-70.45zm191 -585.87c-15.85,-20.22 -36.78,-37.8 -62.15,-44.13 0.53,50.88 46.82,98.2 94.35,110.12 -5.39,-24.12 -17.18,-46.49 -32.2,-65.99zm46.29 -24.4c-3.87,-5.99 -8.76,-11.25 -14.46,-15.5 -7.98,17.44 -6.82,37 -6.58,55.68 0.85,22.86 15.66,65.77 39.52,74.47 1.25,-13.85 2.12,-27.75 2.82,-41.64 -0.16,-25.64 -7.41,-51.41 -21.3,-73.01zm56.21 67.65c-4.35,-10.43 -9.39,-21.08 -18.08,-28.65 -12.99,21.54 -11.06,34.28 -11.23,57.54 -0.18,23.69 9.8,69.11 28.68,85.84 7.48,-15.51 14.57,-32.25 13.23,-49.86 1.27,-22.28 -4.39,-44.32 -12.58,-64.88zm-103.73 17.33c-15.39,-5.86 -31.54,-10.51 -48.14,-10.55 11.77,40.33 86.95,85.25 127.6,85.67 -20.76,-39.53 -36.05,-58.37 -79.45,-75.13zm157.73 17.61c-12.57,9.06 -21.72,21.95 -28.95,35.48 -17.57,33.19 -19.71,62.92 -14.52,98.88 21.72,-9.36 38.1,-46.01 43.84,-66.91 3.3,-12.02 3.03,-55.27 -0.38,-67.45zm-99.49 63.83c-7.06,-5.34 -20.18,-13.64 -18.7,2.07 1.84,19.49 17.74,60.64 29.71,76.08 10.19,13.13 22.21,26.22 38.36,31.67 0.03,-7.55 0.36,-15.14 -0.36,-22.66 -3.27,-31.94 -24.18,-66.96 -49.02,-87.16zm121.62 32.36c-49.73,11.64 -68.14,76.98 -68.22,121.14 40.78,-12.54 67.85,-82.68 68.22,-121.14zm-83.79 110.56c-1.33,-14.67 -7.76,-28.13 -14.84,-40.81 -15.67,12.17 -21.05,32.97 -22,51.91 0,13.51 -0.64,27.1 0.93,40.54 1.55,13.73 6.91,26.58 10.26,39.88 26.32,-10.94 27.49,-68.81 25.65,-91.53zm103.58 -29.76c-31.76,3.99 -59.48,26.73 -79.14,50.62 -12.24,14.73 -15.7,34.15 -24.35,50.85 27.21,-3.8 60.61,-28.99 76.24,-50.64 11.33,-15.64 19.09,-33.43 27.25,-50.82zm-47.95 94.15c-52.32,-0.48 -92.54,53.15 -114.6,94.57 44.99,-1.47 106.07,-49.39 114.6,-94.57zm-100.54 -0.34c-32.25,21.5 -57.05,62.52 -62.89,100.46 -1.75,11.24 -1.14,22.61 -1.14,33.93 18.32,-5.59 30.7,-21.69 39.61,-37.76 15.92,-29.57 23.57,-63.19 24.42,-96.62zm102.79 90.04c-32.43,-2.11 -47.88,-4.74 -80.28,4.88 -20.86,6.2 -62.65,21.2 -71.68,43.48 4.31,1.26 8.7,2.48 13.23,2.29 12.77,-0.24 25.65,0.62 38.33,-1.38 30.13,-4.61 83.46,-20.97 100.4,-49.28zm-177.13 1.91c-48.53,2.63 -102.7,57.98 -107.83,105.73 65.99,-35.79 72.28,-38.93 107.83,-105.73zm82.94 62.76c-35.6,-10.54 -95.83,-7.32 -127.78,14.35 9.11,9.51 22.04,13.74 34.46,16.91 16,4.1 32.67,2.78 48.96,1.79 25.1,-1.8 48.81,-10.77 73.05,-16.77 -7.22,-8.76 -18.1,-13.13 -28.69,-16.28zm-440.52 -503.7c15.85,-20.22 36.78,-37.8 62.15,-44.13 -0.53,50.88 -46.82,98.2 -94.35,110.12 5.39,-24.12 17.18,-46.49 32.2,-65.99zm-46.29 -24.4c3.87,-5.99 8.76,-11.25 14.46,-15.5 7.98,17.44 6.82,37 6.58,55.68 -0.85,22.86 -15.66,65.77 -39.52,74.47 -1.25,-13.85 -2.12,-27.75 -2.82,-41.64 0.16,-25.64 7.41,-51.41 21.3,-73.01zm-56.21 67.65c4.35,-10.43 9.39,-21.08 18.08,-28.65 12.99,21.54 11.06,34.28 11.23,57.54 0.18,23.69 -9.8,69.11 -28.68,85.84 -7.48,-15.51 -14.57,-32.25 -13.23,-49.86 -1.27,-22.28 4.39,-44.32 12.58,-64.88zm103.73 17.33c15.39,-5.86 31.54,-10.51 48.14,-10.55 -11.77,40.33 -86.95,85.25 -127.6,85.67 20.76,-39.53 36.05,-58.37 79.45,-75.13zm-157.73 17.61c12.57,9.06 21.72,21.95 28.95,35.48 17.57,33.19 19.71,62.92 14.52,98.88 -21.72,-9.36 -38.1,-46.01 -43.84,-66.91 -3.3,-12.02 -3.03,-55.27 0.38,-67.45zm99.49 63.83c7.06,-5.34 20.18,-13.64 18.7,2.07 -1.84,19.49 -17.74,60.64 -29.71,76.08 -10.19,13.13 -22.21,26.22 -38.36,31.67 -0.03,-7.55 -0.36,-15.14 0.36,-22.66 3.27,-31.94 24.18,-66.96 49.02,-87.16zm-121.62 32.36c49.73,11.64 68.14,76.98 68.22,121.14 -40.78,-12.54 -67.85,-82.68 -68.22,-121.14zm83.79 110.56c1.33,-14.67 7.76,-28.13 14.84,-40.81 15.67,12.17 21.05,32.97 22,51.91 0,13.51 0.64,27.1 -0.93,40.54 -1.55,13.73 -6.91,26.58 -10.26,39.88 -26.32,-10.94 -27.49,-68.81 -25.65,-91.53zm-103.58 -29.76c31.76,3.99 59.48,26.73 79.14,50.62 12.24,14.73 15.7,34.15 24.35,50.85 -27.21,-3.8 -60.61,-28.99 -76.24,-50.64 -11.33,-15.64 -19.09,-33.43 -27.25,-50.82zm47.95 94.15c52.32,-0.48 92.54,53.15 114.6,94.57 -44.99,-1.47 -106.07,-49.39 -114.6,-94.57zm100.54 -0.34c32.25,21.5 57.05,62.52 62.89,100.46 1.75,11.24 1.14,22.61 1.14,33.93 -18.32,-5.59 -30.7,-21.69 -39.61,-37.76 -15.92,-29.57 -23.57,-63.19 -24.42,-96.62zm-102.79 90.04c32.43,-2.11 47.88,-4.74 80.28,4.88 20.86,6.2 62.65,21.2 71.68,43.48 -4.31,1.26 -8.7,2.48 -13.23,2.29 -12.77,-0.24 -25.65,0.62 -38.33,-1.38 -30.13,-4.61 -83.46,-20.97 -100.4,-49.28zm177.13 1.91c48.53,2.63 102.7,57.98 107.83,105.73 -65.99,-35.79 -72.28,-38.93 -107.83,-105.73zm-82.94 62.76c35.6,-10.54 95.83,-7.32 127.78,14.35 -9.11,9.51 -22.04,13.74 -34.46,16.91 -16,4.1 -32.67,2.78 -48.96,1.79 -25.1,-1.8 -48.81,-10.77 -73.05,-16.77 7.22,-8.76 18.1,-13.13 28.69,-16.28z"/>
  <g id="_2258562807808">
   <path class="fil1" d="M1087.82 479.97c10.94,-1.98 22.32,-0.57 32.77,3.83 10.32,4.34 19.79,11.58 27.09,21.36l0.37 0.51c11.12,14.96 16,35.01 15,54.58 -1,19.6 -7.89,38.8 -20.34,52.13l-2.88 3.03c-12.68,12.54 -29.34,18.14 -45.6,17.04 -16.3,-1.14 -32.3,-8.97 -43.61,-23.32l-2.14 -2.91c-10.76,-14.67 -15.97,-34.28 -15.43,-53.55 0.55,-18.91 6.6,-37.56 18.36,-50.99 4.65,-5.65 10.14,-10.19 16.04,-13.71 6.4,-3.81 13.3,-6.4 20.2,-7.97l0.16 -0.04zm-2.45 36.42l-1.04 0.49c-8.31,4.19 -14.43,12.57 -17.69,22.41 -3.26,9.93 -3.63,21.32 -0.43,31.33l0.53 1.55c0.26,0.96 0.61,1.92 0.96,2.9 3.29,8.82 9.48,15.86 16.83,19.91 7.3,4 15.69,5.06 23.39,1.93 0.8,-0.33 1.57,-0.69 2.28,-1.04l0.26 -0.14c3.55,-1.59 6.73,-3.93 9.46,-6.83 5.56,-5.87 9.35,-14.04 11.08,-22.84 1.75,-8.83 1.43,-18.25 -1.22,-26.62 -1.35,-4.28 -3.34,-8.31 -5.95,-11.82l-0.14 -0.19c-4.37,-6.42 -10.56,-10.7 -17.28,-12.64 -6.93,-2.03 -14.39,-1.53 -21.03,1.61zm-229.44 -34.93c7.81,-0.12 15.63,-0.09 23.44,-0.06l3.08 -0.02 1.1 3.42c3.69,11.45 7.32,22.17 10.98,32.89 4.61,13.57 9.21,27.12 13.51,40.84 4.26,-13.98 8.96,-27.74 13.65,-41.47 3.71,-10.86 7.42,-21.69 10.76,-32.2l1.08 -3.4c10.21,-0.09 20.44,-0.08 30.65,-0.06l0.3 4.91c2,31.98 4.26,64.57 6.5,97.17l3.24 47.22 -30.79 0 -0.19 -5.06c-0.53,-12.53 -1.45,-25.66 -2.35,-38.78 -0.73,-10.66 -1.47,-21.32 -2.03,-32.04 -2.74,8.07 -5.63,16.08 -8.52,24.07 -2.98,8.23 -5.97,16.47 -8.6,24.26l-1.14 3.34 -25.2 -0.04 -1.12 -3.34c-2.75,-8.15 -5.65,-16.26 -8.54,-24.37 -2.89,-8.13 -5.79,-16.26 -8.58,-24.44 -0.55,12.09 -1.39,24.11 -2.24,36.11 -0.85,11.94 -1.69,23.89 -2.24,35.26l-0.22 4.99 -31.22 -0.02 0.47 -5.77c1.84,-22.26 3.55,-45.49 5.2,-69.23 1.65,-23.5 3.14,-46.47 4.61,-69.28l0.3 -4.83 4.11 -0.06zm372.54 -0.12l23.92 0.1 43.83 77.59c1.18,2.04 2.32,4.12 3.42,6.23 -0.16,-13.53 -0.1,-27.1 -0.04,-40.66 0.04,-12.61 0.09,-25.23 -0.04,-37.83l-0.06 -5.36 29.67 -0.06 -0.02 45.38c0,32.89 -0.02,65.77 0.04,98.66l0 5.32 -4.46 0c-7.64,0 -15.27,0 -20.85,0.08l-2.38 0.04 -1.35 -2.35c-7.98,-13.86 -16.4,-28.77 -24.82,-43.65l-18.5 -32.61c-0.92,-1.59 -1.83,-3.22 -2.69,-4.87 0.18,13.62 0.12,27.31 0.06,40.97 -0.06,12.33 -0.12,24.66 0.02,37.01l0.06 5.38 -30.24 0 0 -149.36 4.44 0zm173.5 0l25.49 -0.02 0.02 5.28c0.06,10.86 0.02,21.68 -0.02,32.51 -0.06,18.99 -0.12,38.01 0.23,57.06l0 0.18c-0.06,5.13 1.53,10.09 4.2,14 2.65,3.81 6.34,6.58 10.53,7.42l0.45 0.09c1.55,0.53 3.2,0.85 4.85,0.96 4.89,0.33 9.97,-1.02 14.16,-3.87 3.95,-2.69 7.07,-6.75 8.3,-11.95 0.3,-1.24 0.47,-2.59 0.53,-4.01 0.81,-19.3 0.67,-38.58 0.55,-57.86 -0.08,-11.5 -0.14,-23.05 -0.02,-34.58l0.06 -5.22 29.93 0.06c-0.06,31.71 -0.02,63.4 0,95.1 0.16,9.78 -2.04,19.56 -6.15,28 -4.04,8.36 -9.95,15.45 -17.18,20.05 -7.52,4.81 -15.88,7.38 -24.37,7.97 -8.84,0.63 -17.83,-0.92 -26.12,-4.36 -8.57,-3.53 -15.92,-10.35 -21.21,-18.95 -5.26,-8.58 -8.44,-18.98 -8.64,-29.74l0 -0.08c-0.09,-17.58 -0.08,-35.15 -0.06,-52.74l-0.02 -45.31 4.48 0zm178.01 0.3c3.91,-0.16 7.88,-0.23 11.9,-0.27l14.87 0.06 1.1 3.36c3.42,10.49 7.11,21.38 10.78,32.3 4.61,13.64 9.23,27.31 13.65,41.09 4.63,-13.66 9.29,-27.7 13.94,-41.74l11.64 -34.89 14.74 -0.16 15.85 0.04 0.31 4.89c1.81,28.94 3.85,58.49 5.89,88.06l3.85 56.33 -30.71 0 -0.24 -5.06c-0.51,-12.43 -1.43,-25.47 -2.33,-38.5 -0.75,-10.74 -1.5,-21.5 -2.06,-32.34 -2.63,7.8 -5.42,15.49 -8.21,23.19 -3.12,8.64 -6.24,17.28 -8.87,25.13l-1.12 3.36 -25.21 -0.02 -1.12 -3.32c-2.79,-8.21 -5.48,-15.69 -8.15,-23.15 -3.05,-8.54 -6.09,-17.09 -8.99,-25.7 -0.57,12.19 -1.43,24.27 -2.28,36.34 -0.85,11.88 -1.67,23.78 -2.2,35.05l-0.26 5.03 -30.78 0 0.37 -5.73c1.04,-15.51 2.12,-30.42 3.2,-45.34 2.22,-31.2 4.45,-62.43 6.12,-93.03l0.28 -4.79 4.04 -0.18zm187.75 -0.27l74.48 0 0.02 32.86 -10.46 -0.02c-12.84,-0.02 -25.7,-0.04 -38.54,0.04l-0.06 7.44c-0.06,5.93 -0.12,11.88 0.12,17.88 6.73,0.3 13.45,0.22 20.14,0.14 5.09,-0.06 10.21,-0.12 15.3,-0.02l4.38 0.08 0.12 32 -18.1 0c-7.31,-0.02 -14.63,-0.02 -21.94,0.02l-0.02 25.97c10.44,0.55 20.81,0.49 31.2,0.41 5.4,-0.02 10.82,-0.06 16.22,0l4.44 0.04 0.02 32.44 -81.74 0.06c0,-49.77 0.04,-99.56 -0.02,-149.35l4.46 0zm144.36 -0.02c7.95,0.02 15.92,0.04 23.88,0.14l1.31 2.34c9.02,16.2 17.59,31.33 26.15,46.47l17.22 30.47 2.49 4.54c-0.16,-13.41 -0.09,-26.84 -0.04,-40.27 0.04,-12.74 0.1,-25.5 -0.04,-38.26l-0.06 -5.36 29.69 -0.04c-0.04,49.77 -0.04,99.52 0.02,149.29l-28.08 -0.02 -1.31 -2.35c-6.66,-12 -13.78,-24.58 -20.95,-37.17l-11.17 -19.71c-1.95,-3.56 -3.7,-6.58 -5.46,-9.62 -2.73,-4.75 -5.48,-9.52 -8.05,-14.43 0.08,13.69 0.06,27.39 0.04,41.1 -0.02,12.29 -0.04,24.6 0.02,36.91l0.02 5.34 -30.22 0.02 0.02 -64.81c0,-26.41 -0.02,-52.83 0.06,-79.26l0.02 -5.32 4.44 0.02zm160.91 0.06l102.99 -0.04 -0.04 32.86 -38.57 -0.06 0 116.53 -30.18 0 0.02 -116.51 -38.64 -0.04 -0.02 -32.75 4.44 0zm155.42 25.46c2.53,-6.52 6.4,-11.94 11.03,-16.2 5.03,-4.61 10.94,-7.93 16.96,-9.88l0.1 -0.02c8.48,-2.53 17.22,-2.28 25.56,0.13 8.84,2.55 17.26,7.52 24.39,14.12l2.94 2.71 -13.53 30.49 -4.16 -3.57c-5.16,-4.41 -11.29,-8.52 -17.51,-10.11 -4.56,-1.16 -9.21,-0.99 -13.53,1.49l-0.18 0.09c-1.1,0.57 -2.06,1.51 -2.81,2.69 -0.87,1.31 -1.44,2.87 -1.67,4.47 -0.22,1.45 -0.12,2.93 0.35,4.18 0.32,0.91 0.85,1.73 1.61,2.44l0.04 0.06c5.22,4.95 11.82,8.23 18.4,11.47 10.07,4.95 20.15,9.91 27.27,21.17 1.59,2.35 2.89,4.9 3.93,7.57 3.38,8.8 3.67,18.79 1.51,28.04 -2.12,9.17 -6.65,17.67 -12.88,23.64 -2.16,2.06 -4.54,3.83 -7.12,5.23 -10.56,5.83 -22.27,6.93 -33.44,4.37 -11.8,-2.67 -23.07,-9.44 -31.87,-19l-2.92 -3.18 3.98 -6.58c3.3,-5.44 6.6,-10.9 9.78,-16.35l2.55 -4.34 3.65 3.01c4.32,3.55 8.88,7.05 13.61,9.58 4.48,2.38 9.15,3.93 14.04,3.85l0.83 -0.06c2.67,-0.3 5.45,-1.53 7.52,-3.55 1.73,-1.69 2.88,-3.99 2.87,-6.64l-0.04 -1.31c0.06,-1.63 -0.55,-3.14 -1.48,-4.46 -1.17,-1.71 -2.9,-3.18 -4.59,-4.38 -4.26,-2.96 -9.13,-5.45 -14,-7.95 -9.23,-4.71 -18.5,-9.44 -25.94,-18.58 -4.69,-5.71 -7.34,-13.06 -8.2,-20.73 -0.91,-8.09 0.16,-16.59 2.94,-23.91z"/>
   <path class="fil1" d="M2045.76 68.67c22.04,-2.32 46.93,-0.89 64.62,14.1 15.3,13.1 20.03,34.2 20.23,53.54 0.06,69.7 0.06,139.4 0,209.14 -0.14,18.94 -4.4,39.54 -18.81,52.97 -14.78,13.72 -36.07,16.95 -55.47,16.33 -18.02,-0.55 -37.38,-5.48 -49.64,-19.61 -12.51,-14.1 -15.59,-33.77 -15.65,-52.01 -0.02,-68.03 -0.02,-136.08 0,-204.13 0.08,-17.67 3.06,-36.64 14.72,-50.62 9.8,-11.94 25,-17.83 40,-19.71zm9.43 47.59c-9.74,1.14 -15.59,10.94 -15.16,20.19 -0.12,68.87 0.04,137.75 -0.08,206.65 -0.22,7.44 1.44,16.08 8.29,20.32 7.74,4.47 18.28,4.32 25.86,-0.45 7.17,-4.89 7.8,-14.29 7.91,-22.21 0.04,-65.66 -0.04,-131.33 0.02,-196.98 -0.22,-7.11 0.02,-15 -4.44,-20.99 -5.18,-6.7 -14.59,-7.77 -22.4,-6.52zm-859.45 -31.12c17.69,-17.3 44.67,-19.08 68.02,-16.33 19.89,2.08 39.58,13.62 47.24,32.75 10.72,26.01 5.28,54.8 6.65,82.13 -16.22,0.06 -32.42,0 -48.63,0.02 -0.22,-15.68 0.37,-31.43 -0.27,-47.14 -0.12,-7.18 -2.87,-15.27 -9.9,-18.42 -7.58,-3.38 -17.16,-3.38 -24.25,1.2 -6.42,4.32 -7.74,12.57 -7.66,19.74 0.04,68.03 0.06,136.04 0,204.03 0.06,6.13 0.63,12.9 5.09,17.59 10.64,10.94 34.83,6.73 36.24,-10.29 1.67,-28.3 0.27,-56.71 0.71,-85.03 -8.19,-0.04 -16.37,-0.04 -24.56,0 0,-16.16 -0.22,-32.32 0.16,-48.46 24.34,0.22 48.7,0.04 73.08,0.14 0,41.23 -0.04,82.44 0.02,123.65 0.22,19.69 -2.89,41.33 -17.2,56.02 -14.94,15.35 -37.8,18.79 -58.28,17.98 -18.36,-0.68 -38.13,-6.26 -49.93,-21.24 -12.98,-16.06 -14.59,-37.73 -14.25,-57.56 0.04,-64.02 0.04,-128.03 0,-192.06 -0.33,-20.58 2.43,-43.45 17.73,-58.7zm662.36 -14.59c22.84,-4.77 48.7,-4.52 69.12,8.11 18.53,11.72 25.31,34.77 25.63,55.62 0.19,69.64 0,139.32 0.09,208.96 0.02,19.12 -3.63,39.95 -17.65,53.99 -14.08,14.1 -35.05,17.83 -54.23,17.58 -18.2,-0.26 -37.88,-4.54 -50.83,-18.26 -12.96,-13.55 -16.65,-33.1 -16.85,-51.2 -0.14,-67.19 0.02,-134.38 -0.08,-201.56 -0.14,-17.12 1.39,-35.16 10.81,-49.98 7.46,-12.08 20.33,-20.01 33.99,-23.25zm19.26 45.74c-14.32,1.89 -16.32,18.44 -15.16,30.02 0.16,66.44 -0.06,132.94 0.1,199.38 -0.19,7.85 3.46,16.47 11.31,19.28 8.27,2.77 18.85,2.38 25.27,-4.2 5.54,-5.97 5.2,-14.77 5.44,-22.36 -0.04,-64.85 -0.04,-129.74 -0.02,-194.59 -0.2,-7.15 0.04,-15.02 -4.4,-20.99 -5.2,-6.77 -14.71,-7.87 -22.54,-6.54zm-1037.97 -43.07c41.9,-0.02 83.84,0.04 125.78,-0.02 0.04,16.02 0,32.02 0.02,48.06 -25.72,0 -51.44,-0.02 -77.17,0l0 95.73c22.13,0.06 44.24,0 66.35,0.02 -0.04,16.14 0.14,32.26 -0.09,48.4 -22.11,-0.12 -44.18,-0.04 -66.25,-0.04l0 95.71c25.73,0.04 51.42,0.04 77.15,0 0.02,16.02 0.02,32.04 0,48.06 -41.92,0 -83.82,-0.06 -125.74,0.02 -0.14,-111.97 0,-223.94 -0.04,-335.95zm162.13 0c26.58,0.06 53.17,-0.1 79.76,0.06 17.45,0.39 36.03,6.7 46.59,21.3 11.39,15.43 13.39,35.44 13,54.07 -0.08,63.99 -0.02,127.99 -0.02,192 -0.06,17.85 -3.93,36.92 -16.34,50.42 -12.16,13.1 -30.67,17.93 -48.01,18.08 -25.01,0.02 -49.99,-0.02 -74.98,0 0,-111.99 -0.04,-223.94 0,-335.93zm48.63 48.06l0 239.8c10.31,-0.39 20.99,1.41 31.02,-1.59 8.46,-3.22 11.19,-13.02 10.98,-21.22 0.02,-64.82 0.06,-129.63 0,-194.44 0.22,-8.33 -2.81,-18.07 -11.41,-21.1 -9.91,-2.79 -20.42,-1.08 -30.59,-1.45zm308.19 -47.56c41.82,-1.21 83.74,-0.13 125.63,-0.53 0.04,16.02 0,32.02 0.02,48.06 -25.72,0 -51.45,-0.02 -77.18,0l0 95.73c22.12,0.06 44.22,0 66.35,0.02 0.02,16.12 0.02,32.24 0,48.36 -22.13,-0.04 -44.22,-0.04 -66.35,0l0 95.71c25.74,0.04 51.42,0.04 77.17,0.04 0.02,15.98 0.02,32 0,48.02 -41.92,0 -83.86,-0.02 -125.78,0.02 0.06,-111.83 -0.24,-223.63 0.16,-335.44zm146.42 -0.53c16.38,0.02 32.75,0 49.16,0.06 11.31,85.86 22.72,171.72 34.03,257.59 11.39,-85.88 22.74,-171.73 34.09,-257.59 16.16,-0.08 32.3,-0.04 48.46,-0.04 11.35,85.68 22.66,171.36 34.01,257.06 11.62,-85.69 22.74,-171.38 34.12,-257.09 16.44,0.02 32.87,0 49.32,0.02 -7.15,52.32 -13.12,104.76 -21.66,156.89 -9.39,59.68 -18.77,119.35 -28.18,179.04l-66.72 0c-8.37,-57.35 -16.75,-114.7 -24.96,-172.05 -8.52,57.29 -16.59,114.7 -24.88,172.05 -22.3,0 -44.57,0 -66.83,-0.02 -9.37,-59.54 -18.77,-119.08 -28.14,-178.61 -8.66,-52.24 -14.61,-104.86 -21.83,-157.32zm666.44 0.02c25,-0.02 50.01,0.04 75.01,-0.04 18.44,-0.33 38.58,4.99 50.37,20.15 12.17,15.45 14.35,36.05 13.96,55.09 -0.1,64.97 0.06,129.94 -0.06,194.9 -0.33,19.08 -5.77,39.9 -21.26,52.37 -13.9,11.35 -32.62,13.98 -50.01,13.51 -22.68,-0.12 -45.36,-0.02 -68,-0.04 0,-111.99 -0.04,-223.94 0,-335.93zm48.63 48.06l0 239.8c10.31,-0.43 20.97,1.41 31.01,-1.59 8.46,-3.22 11.21,-13.03 10.99,-21.28 0.02,-64.81 0.04,-129.66 0,-194.47 0.19,-8.26 -2.81,-17.89 -11.29,-20.97 -9.97,-2.87 -20.5,-1.1 -30.71,-1.49z"/>
  </g>
 </g>
</svg>
